<svg width="1441" height="1257" viewBox="0 0 1441 1257" fill="none" xmlns="http://www.w3.org/2000/svg">
<g clip-path="url(#clip0_294_2349)">
<path d="M1492.86 600.981C1458.34 691.384 1422.18 785.428 1351.76 854.609C1320.02 885.786 1281.97 911.202 1239.21 924.343C1189.5 939.622 1136.48 936.849 1086.41 924.822C990.014 901.668 906.693 845.81 815.687 808.838C734.33 775.786 647.427 764.42 560.639 779.674C475.947 794.557 397.125 833.131 333.714 891.209C266.588 952.689 216.904 1029.8 160.361 1100.45C103.627 1171.34 37.3022 1231.91 -41.8999 1276.92C-120.772 1321.74 -208.773 1350.8 -298.946 1361.04C-479.414 1381.54 -665.339 1323.1 -803.685 1205.86C-820.54 1191.57 -836.604 1176.4 -851.949 1160.5C-852.502 1159.93 -853.377 1160.81 -852.824 1161.38C-728.874 1289.78 -553.135 1365.62 -374.507 1366.43C-196.912 1367.23 -20.2896 1293.24 104.098 1166.56C168.805 1100.67 217.969 1021.83 277.699 951.732C338.84 879.975 412.297 823.3 503.121 794.92C591.692 767.243 687.742 766.929 776.073 795.614C872.42 826.899 956.847 886.174 1053.43 916.881C1099.2 931.434 1147.81 939.936 1195.87 934.537C1238.59 929.742 1278.65 913.257 1313.57 888.395C1387.69 835.599 1432.24 753.995 1466.4 671.714C1476.06 648.428 1485.06 624.877 1494.06 601.327C1494.34 600.56 1493.14 600.238 1492.86 600.981Z" fill="#EFF6FF"/>
<path d="M1492 589.318C1458.23 675.049 1422.57 763.537 1357.52 830.903C1328.16 861.304 1293.33 886.984 1253.94 902.766C1208.55 920.959 1159.07 923.766 1111.07 916.395C1015.72 901.759 932.207 851.473 845.684 812.206C767.703 776.819 686.726 755.39 600.574 761.028C519.63 766.319 439.908 792.676 372.716 838.323C299.234 888.247 245.258 960.036 192.784 1030.43C136.406 1106.04 78.4591 1178.53 1.91497 1234.85C-68.5704 1286.72 -149.324 1325.03 -234.552 1345.19C-427.617 1390.86 -636.878 1339.3 -791.245 1216.03C-808.926 1201.9 -825.799 1186.84 -841.936 1170.98C-842.506 1170.42 -843.381 1171.29 -842.811 1171.86C-706.595 1305.8 -512.391 1377.61 -321.654 1360.59C-140.253 1344.39 21.9404 1247.37 135.473 1107.27C194.41 1034.55 244.59 954.167 312.508 889.089C377.768 826.561 459.306 784.661 548.348 768.647C639.122 752.32 729.386 765.073 814.292 799.94C902.417 836.119 984.054 888.445 1077.46 910.988C1121.95 921.727 1168.68 925.574 1213.79 916.197C1253.31 907.983 1289.91 889.485 1321.7 864.829C1391.32 810.836 1434.08 731.972 1467.86 652.283C1476.65 631.548 1484.95 610.598 1493.2 589.648C1493.49 588.905 1492.29 588.591 1492 589.318Z" fill="#EFF6FF"/>
<path d="M1491.15 577.663C1456.67 662.61 1419.67 750.017 1354.35 816.367C1324.61 846.579 1289.51 872.093 1249.98 887.859C1207.06 904.971 1160.49 908.809 1114.85 903.213C1017.9 891.326 932.389 841.807 844.866 802.235C765.937 766.543 684.481 743.529 597.19 748.011C517.121 752.122 437.91 776.572 370.281 819.809C295.38 867.702 239.893 938.204 187.642 1008.81C132.386 1083.47 77.6419 1157.48 5.0352 1216.46C-63.7002 1272.3 -143.497 1315.27 -229.121 1338.47C-416.54 1389.26 -623.522 1342.17 -777.832 1226.77C-796.685 1212.67 -814.704 1197.52 -831.932 1181.47C-832.518 1180.93 -833.393 1181.8 -832.807 1182.35C-695.171 1310.59 -502.634 1377.29 -315.058 1356.1C-227.09 1346.16 -142.638 1315.48 -67.3074 1269.27C10.3759 1221.61 75.2728 1158.51 130.958 1086.75C188.624 1012.44 239.67 931.79 309.701 868.057C375.927 807.791 458.522 768.664 546.903 754.532C637.587 740.029 726.901 754.301 811.353 789.061C899.841 825.472 982.626 876.93 1076.93 897.872C1120.83 907.621 1166.68 910.617 1210.9 901.108C1250.62 892.564 1287.51 873.777 1319.54 849.005C1388.29 795.813 1431.75 718.823 1466.17 640.521C1475.26 619.835 1483.83 598.935 1492.33 578.001C1492.64 577.258 1491.44 576.937 1491.15 577.663Z" fill="#EFF6FF"/>
<path d="M1490.28 566.006C1455.31 649.666 1417.33 735.29 1352.5 800.55C1322.52 830.729 1287.29 856.243 1247.73 872.265C1204.88 889.616 1158.32 894.148 1112.57 889.072C1015.73 878.333 929.748 830.564 842.299 791.371C763.584 756.091 682.649 731.996 595.63 734.985C515.8 737.725 436.449 760.359 367.937 801.599C292.259 847.155 235.444 915.486 183.514 985.658C128.556 1059.92 76.2718 1135.77 6.86779 1197.65C-58.6483 1256.06 -135.358 1303.15 -219.207 1329.95C-402.655 1388.58 -610.62 1345.55 -766.193 1235.97C-785.566 1222.32 -804.139 1207.61 -821.927 1191.95C-822.521 1191.43 -823.405 1192.3 -822.802 1192.83C-683.094 1315.83 -491.449 1377.56 -306.259 1351.13C-218.67 1338.64 -136.01 1303.81 -63.1554 1254.06C11.1023 1203.35 71.9547 1138.35 125.626 1066.68C182.491 990.743 234.767 909.609 307.25 847.188C374.392 789.374 457.796 752.872 545.426 740.589C636.291 727.853 724.837 743.66 809.141 778.412C897.151 814.69 980.282 864.539 1074.4 884.185C1118.65 893.422 1164.75 895.807 1209.08 885.745C1248.67 876.764 1285.47 857.837 1317.51 833.139C1385.76 780.533 1429.91 704.864 1465.02 627.577C1474.22 607.328 1482.89 586.857 1491.47 566.345C1491.78 565.602 1490.58 565.28 1490.28 566.006Z" fill="#EFF6FF"/>
<path d="M1489.49 554.203C1454.14 636.409 1415.34 719.97 1351.32 784.173C1322.48 813.097 1288.9 837.712 1251.41 854.172C1208.64 872.951 1161.96 879.175 1115.55 875.345C1017.61 867.263 929.773 820.493 841.565 781.243C763.106 746.335 682.583 720.82 595.902 722.066C515.057 723.23 434.353 744.444 364.082 784.627C288.446 827.881 230.731 893.571 179.247 962.686C123.975 1036.89 73.4738 1114.54 6.71956 1179.32C-56.3697 1240.53 -130.801 1291.9 -213.709 1322.16C-392.411 1387.39 -600.078 1347.82 -755.849 1244.18C-775.264 1231.26 -793.944 1217.32 -811.889 1202.44C-812.5 1201.93 -813.375 1202.8 -812.764 1203.31C-671.554 1320.44 -481.964 1377.47 -299.861 1346.29C-213.172 1331.45 -132.897 1292.83 -62.7669 1240.37C9.82331 1186.07 68.1002 1118.04 121.094 1045.07C176.358 968.967 229.278 889.138 302.504 828.74C370.513 772.65 454.643 738.039 541.934 727.077C632.561 715.694 720.347 732.302 804.362 766.641C892.85 802.804 976.914 851.728 1071.66 870.384C1115.64 879.043 1161.36 880.949 1205.28 870.829C1243.67 861.981 1279.52 844.101 1311.08 820.683C1380.12 769.439 1425.93 694.983 1462.16 618.373C1472.08 597.398 1481.39 576.143 1490.56 554.83C1490.87 554.103 1489.8 553.468 1489.49 554.203Z" fill="#EFF6FF"/>
<path d="M1488.63 542.547C1452.61 624.036 1412.62 706.515 1348.26 769.761C1318.61 798.9 1284.25 823.573 1245.93 839.974C1203.38 858.184 1157.25 864.375 1111.22 860.883C1014.19 853.52 926.462 808.648 838.865 770.166C760.604 735.786 680.535 709.446 594.217 709.355C514.264 709.264 434.113 728.456 363.504 766.138C287.727 806.585 228.716 868.898 177.298 936.659C121.778 1009.83 73.3657 1088.34 10.3837 1155.63C-48.6031 1218.65 -118.213 1273.83 -197.416 1309.14C-284.517 1347.96 -381.599 1356.83 -475.791 1347.39C-571.42 1337.8 -662.764 1304.03 -744.121 1253.29C-764.08 1240.85 -783.346 1227.38 -801.902 1212.93C-802.521 1212.44 -803.405 1213.32 -802.777 1213.8C-657.11 1327.22 -463.236 1380.6 -281.199 1338.56C-198.943 1319.56 -124.322 1276.98 -59.6807 1223.45C10.6231 1165.24 66.0356 1094.21 118.518 1020.13C173.006 943.205 227.692 863.995 303.411 806.164C372.27 753.574 456.268 722.191 542.239 713.243C632.279 703.866 718.786 721.902 802.025 755.828C889.498 791.487 973.298 838.48 1067.05 856.186C1111.36 864.556 1157.31 866.182 1201.45 855.93C1240.47 846.867 1276.93 828.633 1309.07 804.917C1377.32 754.548 1423.67 681.776 1460.45 606.586C1470.67 585.669 1480.27 564.455 1489.68 543.167C1490.01 542.448 1488.94 541.813 1488.63 542.547Z" fill="#EFF6FF"/>
<path d="M1487.76 530.884C1451.07 611.696 1409.9 693.011 1345.24 755.366C1280.66 817.646 1198.13 852.604 1107.75 846.463C1010.61 839.867 922.262 796.201 834.367 758.205C755.694 724.197 675.311 697.436 588.787 696.684C508.487 695.991 427.865 714.423 356.456 751.346C279.837 790.959 219.686 852.612 167.889 920.572C112.634 993.071 65.4342 1071.53 5.10198 1140.13C-52.2174 1205.31 -119.789 1264.07 -198.133 1302.49C-281.553 1343.41 -376.05 1353.88 -467.915 1347.39C-563.543 1340.64 -655.177 1308.12 -737.309 1259.37C-756.105 1248.22 -774.339 1236.17 -792.004 1223.31C-792.648 1222.84 -793.267 1223.91 -792.631 1224.38C-645.156 1331.81 -452.165 1381.43 -273.29 1332.37C-192.982 1310.35 -121.613 1263.82 -60.2986 1208.4C7.79296 1146.84 61.0098 1073.47 113.244 998.56C167.146 921.257 223.219 842.864 300.539 787.096C370.026 736.983 453.685 707.647 538.806 699.953C629.251 691.773 715.667 710.882 799.22 744.75C887.089 780.377 971.855 826.256 1066.25 842.633C1110.18 850.252 1155.63 851.168 1199.18 840.66C1237.67 831.365 1273.7 813.461 1305.66 790.249C1374.25 740.425 1421.66 668.413 1459.33 593.668C1469.66 573.18 1479.36 552.396 1488.84 531.503C1489.16 530.793 1488.09 530.158 1487.76 530.884Z" fill="#EFF6FF"/>
<path d="M1486.9 519.228C1449.3 599.899 1406.64 680.662 1340.93 742.249C1275.22 803.844 1192 837.984 1101.36 831.835C1004.41 825.256 915.847 782.638 827.788 745.303C749.354 712.045 669.302 685.408 583.331 684.046C503.303 682.775 422.813 700.183 351.057 735.818C274.133 774.012 212.95 833.964 160.889 901.371C105.658 972.888 59.6475 1051.12 2.26206 1121.02C-53.0019 1188.34 -117.833 1250.79 -194.451 1293.27C-274.545 1337.68 -366.938 1350.9 -457.539 1347.63C-552.689 1344.21 -644.191 1313.68 -727 1267.67C-745.828 1257.2 -764.162 1245.89 -781.991 1233.8C-782.652 1233.35 -783.271 1234.42 -782.619 1234.87C-706.586 1286.45 -620.277 1325.35 -529.494 1341.31C-443.713 1356.39 -348.794 1352.71 -265.622 1325.77C-97.2297 1271.22 10.822 1117.54 106.591 978.732C159.816 901.577 216.797 824.472 294.753 770.462C364.924 721.843 448.6 693.819 533.49 686.927C623.588 679.605 709.583 698.987 792.921 732.252C880.667 767.276 965.564 811.95 1059.6 828.054C1103.79 835.615 1149.48 836.589 1193.31 826.288C1232.03 817.191 1268.38 799.609 1300.77 776.703C1370.12 727.663 1418.9 656.344 1457.64 581.913C1468.27 561.491 1478.24 540.739 1487.97 519.872C1488.31 519.137 1487.24 518.51 1486.9 519.228Z" fill="#EFF6FF"/>
<path d="M1486.04 507.573C1448.16 586.816 1404.85 665.73 1339.82 726.186C1273.62 787.74 1190.2 822.549 1099.16 817.464C1003.77 812.14 915.715 771.957 828.935 735.604C747.62 701.546 665.009 673.126 576 671.4C496.889 669.865 417.142 686.283 345.666 720.424C267.876 757.586 205.389 816.342 152.708 883.756C98.7322 952.822 54.4632 1028.8 1.26283 1098.42C-53.0024 1169.44 -116.331 1237.05 -192.751 1284.5C-268.388 1331.47 -357.248 1347.62 -445.323 1347.85C-540.638 1348.11 -632.618 1319.53 -716.691 1275.94C-735.552 1266.16 -753.984 1255.59 -771.971 1244.28C-772.648 1243.85 -773.267 1244.92 -772.598 1245.35C-695.46 1293.86 -608.994 1330.78 -518.434 1343.95C-474.932 1350.27 -430.787 1350.45 -387.055 1346.32C-343.999 1342.26 -300.762 1334.65 -260.166 1319.4C-183.341 1290.55 -118.238 1235.56 -62.784 1176.3C-0.536624 1109.79 48.4539 1033.79 99.764 958.938C151.809 883.03 208.881 808.161 285.969 755.993C356.934 707.968 441.055 680.489 526.308 674.042C617.298 667.158 703.97 687.092 788.224 720.308C876.547 755.126 962.444 799.081 1057.14 814.113C1101.47 821.154 1147.16 821.674 1190.96 811.042C1229.71 801.632 1266.15 784.033 1298.72 761.152C1367.73 712.648 1417.17 642.559 1456.54 569.028C1467.26 549.019 1477.32 528.672 1487.11 508.192C1487.46 507.482 1486.38 506.855 1486.04 507.573Z" fill="#EFF6FF"/>
<path d="M1485.19 495.917C1446.93 573.972 1402.89 651.292 1338.22 710.691C1271.88 771.634 1188.47 807.096 1097.64 803.092C1002.72 798.907 914.526 760.557 827.961 724.897C746.828 691.466 664.53 662.171 575.984 658.968C496.534 656.096 416.176 670.995 343.603 703.65C265.383 738.839 201.427 795.259 148.094 861.732C93.367 929.948 49.4529 1005.81 -1.46097 1076.75C-53.5387 1149.31 -113.392 1219.71 -186.527 1271.92C-258.251 1323.11 -343.569 1343.66 -430.679 1347.8C-526.415 1352.36 -619.196 1326.03 -704.944 1284.93C-724.342 1275.64 -743.352 1265.55 -761.966 1254.77C-762.659 1254.37 -763.278 1255.44 -762.593 1255.84C-683.672 1301.57 -596.381 1336.73 -505.226 1346.83C-461.89 1351.62 -418.132 1349.87 -374.994 1343.85C-332.574 1337.91 -290.212 1328.54 -250.995 1310.93C-176.003 1277.25 -114.176 1217.11 -61.3888 1155.45C-2.71564 1086.91 44.104 1010.17 95.0344 935.982C146.848 860.511 205.307 787.491 283.295 737.617C355.778 691.268 440.742 665.622 526.449 660.727C617.347 655.543 703.533 676.955 787.622 709.924C875.582 744.419 961.742 786.691 1056.19 800.36C1100.22 806.733 1145.37 806.567 1188.71 795.795C1227.55 786.138 1264.09 768.399 1296.86 745.558C1365.51 697.707 1415.53 628.757 1455.46 556.216C1466.26 536.603 1476.4 516.644 1486.26 496.544C1486.6 495.826 1485.53 495.199 1485.19 495.917Z" fill="#EFF6FF"/>
<path d="M1484.32 484.253C1445.18 562.201 1399.71 638.976 1334 697.633C1266.53 757.866 1182.42 792.518 1091.3 788.457C995.932 784.206 907.097 746.351 819.805 711.145C738.234 678.251 655.499 649.402 566.771 646.257C487.577 643.458 407.484 657.986 334.902 689.989C256.641 724.493 192.074 779.947 138.519 846.024C83.981 913.307 40.5622 988.448 -8.21373 1059.8C-58.4012 1133.22 -115.035 1205.33 -184.753 1261.28C-217.936 1287.91 -254.38 1309.28 -294.91 1322.68C-335.398 1336.06 -378.354 1344.04 -420.774 1347.76C-515.652 1356.08 -608.433 1331.37 -694.626 1293.16C-714.066 1284.55 -733.167 1275.21 -751.946 1265.25C-752.647 1264.87 -753.275 1265.94 -752.573 1266.32C-672.496 1308.78 -585.138 1342.14 -494.174 1349.38C-451.712 1352.77 -409.119 1349.43 -367.277 1341.78C-326.202 1334.28 -285.252 1323.6 -247.933 1304.49C-175.211 1267.24 -116.761 1203.79 -66.4163 1140.83C-10.3682 1070.73 35.0977 993.541 85.6979 919.63C137.247 844.315 196.333 772.278 274.537 723.329C347.218 677.83 431.967 652.786 517.393 648.015C608.341 642.93 694.766 664.02 779.16 696.411C867.822 730.436 954.709 772.171 1049.62 785.741C1093.9 792.073 1139.27 791.974 1182.91 781.424C1221.99 771.973 1258.85 754.556 1292.06 732.038C1361.49 684.946 1412.84 616.681 1453.82 544.445C1464.9 524.899 1475.32 504.972 1485.41 484.889C1485.75 484.171 1484.68 483.543 1484.32 484.253Z" fill="#EFF6FF"/>
<path d="M1483.46 472.598C1443.53 550.273 1396.75 626.273 1330.26 684.178C1262.96 742.785 1179.6 776.992 1089.7 774.028C994.124 770.875 904.555 734.192 816.875 699.49C735.494 667.281 653.056 638.101 564.832 633.875C484.705 630.037 403.464 643.648 329.52 674.966C251.053 708.199 185.479 762.068 131.387 827.394C76.1149 894.148 32.6301 969.347 -14.6022 1041.72C-63.1305 1116.07 -116.694 1189.78 -182.862 1249.56C-213.85 1277.56 -248.007 1301.38 -287.034 1316.76C-324.642 1331.59 -365.122 1341.3 -405.099 1346.95C-499.06 1360.24 -591.799 1338.46 -678.835 1303.61C-700.189 1295.06 -721.214 1285.72 -741.941 1275.73C-742.659 1275.38 -743.286 1276.46 -742.568 1276.8C-660.741 1316.21 -572.649 1348 -481.164 1352.05C-439.66 1353.89 -398.289 1348.8 -357.899 1339.35C-317.378 1329.86 -277.245 1317.28 -241.445 1295.61C-173.931 1254.76 -120.615 1190.86 -73.7459 1128.54C-18.647 1055.26 26.6126 975.571 78.484 900.116C130.372 824.653 190.96 753.747 270.393 706.284C343.759 662.452 428.574 638.852 513.769 635.031C605.832 630.903 693.033 653.323 778.459 685.837C865.56 718.987 951.374 758.419 1044.52 771.321C1089.7 777.578 1136.01 777.239 1180.45 766.228C1219.01 756.677 1255.48 739.657 1288.48 717.675C1358.4 671.095 1410.82 603.573 1452.72 531.659C1463.89 512.492 1474.37 492.946 1484.52 473.217C1484.9 472.516 1483.82 471.888 1483.46 472.598Z" fill="#EFF6FF"/>
<path d="M1482.6 460.943C1442.33 537.487 1394.92 611.934 1328.76 668.816C1261.04 727.044 1177.47 761.581 1087.51 759.517C991.458 757.313 900.939 721.464 812.591 687.207C729.476 654.974 645.446 625.414 555.595 621.163C474.602 617.333 392.362 631.077 317.626 662.741C241.057 695.181 176.407 747.044 123.025 810.381C67.5054 876.252 24.1609 951.005 -21.4536 1023.77C-69.1482 1099.84 -120.466 1175.86 -184.035 1239.72C-211.737 1267.55 -242.262 1292.52 -277.847 1309.59C-314.382 1327.11 -354.928 1339.06 -394.69 1346.56C-487.76 1364.13 -580.862 1343.76 -668.468 1311.68C-689.872 1303.84 -711.003 1295.28 -731.912 1286.23C-732.638 1285.92 -733.265 1286.98 -732.539 1287.3C-650.341 1322.9 -562.975 1352.98 -472.547 1354.54C-430.325 1355.28 -388.722 1348.46 -348.242 1336.67C-309.041 1325.26 -270.633 1310.8 -237.07 1287.09C-172.553 1241.52 -122.596 1175.02 -77.6751 1111.06C-25.457 1036.71 18.5149 957.056 70.1221 882.319C121.663 807.674 182.615 738.435 261.66 692.168C335.711 648.832 420.98 625.769 506.522 622.277C599.468 618.48 687.519 641.362 773.919 673.736C861.648 706.614 948.411 745.294 1042.17 757.28C1086.28 762.918 1131.33 762.34 1174.7 751.898C1214.67 742.273 1252.48 724.84 1286.73 702.222C1356.33 656.261 1409.26 589.903 1451.69 518.947C1462.93 500.152 1473.48 480.96 1483.68 461.578C1484.04 460.86 1482.97 460.233 1482.6 460.943Z" fill="#EFF6FF"/>
<path d="M1481.74 449.288C1440.31 526.286 1391.1 600.643 1323.22 656.955C1253.61 714.696 1168.57 747.747 1077.61 744.808C982.156 741.729 892.058 706.656 803.883 673.2C720.504 641.561 636.192 612.612 546.342 608.468C465.58 604.737 383.637 618.167 308.893 649.196C231.036 681.521 165.066 733.698 110.883 797.877C55.2891 863.731 12.0849 938.657 -32.473 1012.1C-78.8799 1088.59 -127.681 1165.52 -187.881 1232.09C-213.569 1260.49 -241.849 1286.76 -275.651 1305.25C-310.609 1324.37 -350.041 1338.27 -388.837 1347.17C-480.611 1368.21 -574.415 1347.89 -661.946 1318.46C-682.161 1311.67 -702.17 1304.32 -722.072 1296.66C-722.815 1296.37 -723.137 1297.56 -722.402 1297.85C-637.389 1330.57 -547.984 1359.63 -455.831 1357C-415.351 1355.85 -375.778 1347.08 -337.741 1333.4C-301.372 1320.32 -266.282 1304.53 -235.963 1280.15C-174.451 1230.68 -127.565 1161.94 -84.4351 1096.72C-33.9917 1020.45 9.45176 939.697 61.6451 864.573C113.269 790.282 175.07 722.282 254.429 677.171C329.314 634.602 415.12 612.34 501.017 609.434C593.5 606.314 681.221 629.179 767.382 660.843C854.277 692.78 940.297 730.107 1032.84 742.291C1078.1 748.25 1124.29 747.953 1168.89 737.544C1208.5 728.291 1246.16 711.534 1280.42 689.718C1351.54 644.433 1406.26 578.397 1450.04 507.185C1461.56 488.448 1472.37 469.289 1482.79 449.924C1483.19 449.206 1482.12 448.587 1481.74 449.288Z" fill="#EFF6FF"/>
<path d="M1480.88 437.625C1438.92 513.872 1388.86 587.023 1320.85 642.436C1251 699.351 1166.02 732.402 1075.39 730.297C979.439 728.06 888.466 693.845 799.623 660.835C715.691 629.65 630.876 600.519 540.695 595.922C459.008 591.753 375.993 604.746 300.159 635.667C221.625 667.686 154.763 719.516 99.9782 783.902C44.483 849.129 1.52655 923.651 -41.6693 997.248C-87.127 1074.69 -133.666 1152.88 -190.474 1222.69C-213.793 1251.35 -239.299 1278.83 -270.493 1299.04C-302.24 1319.62 -339.071 1335.4 -375.317 1345.97C-466.876 1372.66 -562.472 1353.56 -651.612 1326.63C-671.877 1320.5 -691.993 1313.89 -712.052 1307.12C-712.811 1306.87 -713.133 1308.06 -712.382 1308.32C-625.71 1337.53 -535.504 1365.45 -442.938 1359.27C-403.919 1356.67 -366.163 1346.41 -330.289 1331C-295.025 1315.86 -261.652 1297.86 -233.463 1271.45C-176.045 1217.68 -132.535 1148.11 -91.2212 1081.85C-43.6092 1005.49 -1.40379 925.657 49.865 851.622C101.984 776.365 164.991 708.067 245.679 663.113C321.216 621.024 407.475 599.256 493.71 596.665C586.367 593.874 674.418 616.739 760.942 647.933C849.125 679.73 936.565 716.685 1030.37 728.175C1118.13 738.923 1203.4 721.762 1278.4 674.505C1349.34 629.798 1404.65 564.868 1449.01 494.474C1460.59 476.091 1471.47 457.279 1481.94 438.244C1482.34 437.559 1481.26 436.931 1480.88 437.625Z" fill="#EFF6FF"/>
<path d="M1480.02 425.968C1437.76 501.126 1387.16 572.791 1319.46 627.222C1249.2 683.716 1163.94 717.122 1073.22 715.768C975.817 714.315 883.209 680.364 792.797 647.487C708.56 616.854 623.464 588.054 533.226 583.299C451.762 579.007 369.027 591.455 293.077 621.501C214.428 652.621 146.799 703.328 91.5431 767.086C34.9666 832.371 -8.46862 907.586 -51.0289 982.381C-94.6623 1059.07 -138.238 1136.48 -189.845 1208.18C-210.077 1236.3 -231.819 1264.35 -258.523 1286.68C-289.106 1312.25 -327.481 1332.24 -364.973 1345.44C-454.906 1377.1 -551.88 1358.81 -641.276 1334.8C-661.607 1329.34 -681.814 1323.46 -702.03 1317.6C-702.797 1317.38 -703.127 1318.58 -702.36 1318.8C-614.647 1344.19 -524.26 1370.91 -431.925 1361.61C-393.014 1357.69 -355.852 1345.65 -321.158 1327.75C-287.76 1310.51 -257.26 1290.39 -231.704 1262.55C-178.528 1204.62 -138.065 1134.31 -98.3439 1066.92C-52.4075 988.976 -10.5405 908.288 41.3392 834.006C93.6315 759.129 157.538 692.11 238.507 648.263C314.324 607.213 400.411 586.213 486.406 583.918C579.22 581.442 667.56 604.266 754.422 634.973C843.299 666.389 931.531 702.726 1025.9 713.787C1113.99 724.113 1199.6 706.87 1275.2 660.091C1346.54 615.954 1402.84 551.8 1447.99 481.81C1459.63 463.766 1470.58 445.292 1481.09 426.579C1481.48 425.902 1480.42 425.275 1480.02 425.968Z" fill="#EFF6FF"/>
<path d="M1479.16 414.312C1436.02 489.428 1384.06 560.516 1315.33 614.245C1242.91 670.871 1155.66 703.303 1063.26 701.082C965.993 698.738 873.451 665.216 782.817 632.999C697.746 602.754 611.775 574.623 520.876 570.43C439.123 566.657 356.182 579.402 280.05 609.721C202.483 640.618 135.407 690.459 80.6048 753.209C23.7146 818.338 -19.7701 893.726 -61.4224 969.115C-104.627 1047.31 -146.692 1126.56 -195.476 1201.49C-214.544 1230.77 -234.718 1260.38 -260.29 1284.45C-288.125 1310.65 -323.413 1332.36 -358.841 1346.56C-446.215 1381.58 -544.089 1363.53 -632.52 1342.62C-652.388 1337.93 -672.182 1332.92 -692.026 1328.11C-692.802 1327.92 -693.133 1329.12 -692.357 1329.31C-604.38 1350.61 -514.711 1375.9 -423.35 1364.29C-350.512 1355.04 -279.647 1314.23 -233.62 1257.14C-183.697 1195.21 -145.586 1123.14 -106.938 1053.95C-63.1064 975.495 -21.9823 895.022 29.4763 821.152C81.5045 746.466 145.477 679.951 226.14 636.276C301.611 595.416 387.202 574.268 472.777 571.387C566.565 568.234 656.085 590.381 744.152 620.741C834.127 651.753 923.35 687.891 1018.58 699.109C1107.92 709.634 1194.94 692.564 1272.01 645.752C1343.22 602.507 1400.17 539.731 1445.94 470.765C1458.01 452.563 1469.35 433.892 1480.22 414.956C1480.63 414.246 1479.56 413.619 1479.16 414.312Z" fill="#EFF6FF"/>
<path d="M1478.3 402.658C1433.51 479.037 1379.05 550.793 1307.52 604.052C1234.73 658.243 1148.12 688.817 1056.98 686.473C958.986 683.947 865.685 650.822 774.101 618.976C688.204 589.111 601.392 561.475 509.841 557.628C427.717 554.186 344.462 567.088 268 597.555C189.285 628.922 121.301 679.655 65.9706 743.594C9.76562 808.541 -33.1826 883.616 -73.605 959.012C-115.488 1037.15 -155.416 1116.48 -200.105 1193.07C-217.267 1222.48 -235.014 1252.5 -257.639 1278.12C-281.693 1305.36 -313.036 1329.12 -345.789 1344.86C-431.257 1385.94 -531.211 1369.32 -620.302 1351.23C-640.88 1347.05 -661.401 1342.61 -682.013 1338.59C-682.788 1338.44 -683.127 1339.63 -682.343 1339.79C-594.704 1356.89 -506.15 1380.71 -416.242 1367.31C-342.777 1356.35 -277.83 1312.1 -235.517 1251.68C-189.631 1186.18 -153.955 1113.05 -116.578 1042.55C-74.7524 963.652 -34.363 883.385 16.5426 809.804C68.2654 735.043 132.279 668.618 212.703 624.82C289.42 583.044 376.555 561.59 463.64 558.668C556.801 555.548 646.065 576.96 733.802 606.445C824.487 636.921 914.337 672.729 1010 684.211C1099.63 694.967 1187.19 679.069 1265.39 633.421C1338.26 590.869 1397.13 528.308 1444.32 458.987C1456.67 440.843 1468.26 422.205 1479.36 403.277C1479.77 402.592 1478.71 401.965 1478.3 402.658Z" fill="#EFF6FF"/>
<path d="M1477.44 391.003C1432.06 466.853 1376.66 537.562 1304.78 590.003C1230.73 644.004 1143.13 674.174 1051.15 671.871C953.24 669.419 859.708 637.045 767.951 605.835C681.526 576.44 594.218 548.986 502.353 544.991C419.874 541.4 336.231 553.98 259.233 584.101C180.485 614.906 111.915 664.838 56.2627 728.332C-0.842045 793.477 -44.2277 869.236 -84.1136 945.739C-125.18 1024.52 -163.431 1104.73 -204.374 1183.57C-236.863 1246.13 -272.3 1309.12 -336.108 1344.54C-418.942 1390.52 -521.141 1374.58 -609.96 1359.4C-630.621 1355.87 -651.257 1352.15 -671.992 1349.07C-672.768 1348.96 -673.107 1350.15 -672.322 1350.27C-583.297 1363.48 -493.653 1386.61 -403.423 1369.54C-330.049 1355.66 -273.662 1307.3 -236.211 1244.26C-195.104 1175.08 -161.574 1101.21 -125.436 1029.4C-85.2693 949.594 -45.2843 868.972 5.7451 795.408C57.8229 720.333 122.753 654.248 203.911 610.887C280.744 569.845 367.664 548.862 454.502 545.981C549.198 542.836 639.948 564.645 729.278 594.138C820.351 624.201 910.795 659.167 1006.76 669.989C1096.32 680.084 1183.81 664.013 1262.22 619.1C1334.99 577.414 1394.47 516.224 1442.27 447.901C1455.07 429.617 1467.05 410.789 1478.52 391.638C1478.92 390.937 1477.85 390.318 1477.44 391.003Z" fill="#EFF6FF"/>
<path d="M1476.58 379.339C1430.29 455.157 1373.54 525.287 1300.61 576.994C1224.91 630.656 1135.89 660.034 1042.83 657.186C944.218 654.173 850.018 621.973 757.303 591.175C670.68 562.4 583.132 535.812 491.293 532.188C407.864 528.903 323.288 541.829 245.523 572.561C165.834 604.06 96.6111 655.057 40.662 719.78C-15.3862 784.62 -58.0208 859.794 -96.5281 935.991C-136.761 1015.59 -173.444 1096.86 -210.746 1177.84C-239.843 1241.01 -268.784 1309.87 -331.204 1347.12C-411.768 1395.18 -515.181 1379.33 -603.1 1367.08C-622.762 1364.34 -642.416 1361.54 -662.169 1359.54C-662.962 1359.46 -662.953 1360.69 -662.169 1360.78C-572.063 1369.95 -481.461 1392.42 -391.181 1371.76C-354.68 1363.4 -320.886 1346.66 -294.307 1319.94C-270.195 1295.7 -252.514 1267.38 -237.35 1236.88C-161.937 1085.23 -103.379 923.097 -6.48785 783.018C46.2173 706.821 112.468 640.273 195.088 596.97C272.02 556.655 358.742 536.101 445.331 533.27C539.458 530.191 629.845 551.215 718.903 579.866C810.057 609.195 900.477 643.55 996.172 654.875C1087.49 665.689 1176.9 650.525 1257.5 605.637C1331.38 564.496 1392.33 503.685 1441.25 435.264C1454.09 417.302 1466.13 398.795 1477.64 379.95C1478.06 379.282 1477 378.662 1476.58 379.339Z" fill="#EFF6FF"/>
<path d="M1475.72 367.684C1428.93 442.841 1371.43 511.816 1298.34 562.688C1221.92 615.864 1132.37 645.118 1039 642.65C939.752 640.033 844.676 608.402 751.144 578.009C663.432 549.506 574.812 523.009 482.022 519.468C398.825 516.298 314.472 528.927 236.739 559.114C156.96 590.102 87.2336 640.289 30.8883 704.584C-26.0844 769.596 -69.1565 845.496 -107.177 922.751C-145.973 1001.58 -180.659 1082.34 -213.602 1163.78C-239.984 1229 -261.041 1307.16 -322.884 1348.11C-359.27 1372.2 -404.323 1380.66 -447.205 1383.45C-494.595 1386.53 -542.116 1380.83 -589.175 1375.75C-610.133 1373.49 -631.1 1371.2 -652.157 1370.03C-652.949 1369.99 -652.949 1371.23 -652.157 1371.27C-561.555 1376.3 -470.499 1397.92 -380.649 1374.34C-344.494 1364.85 -311.055 1346.77 -286.952 1317.68C-265.424 1291.69 -251.813 1261.33 -239.15 1230.36C-207.725 1153.49 -177.175 1076.34 -142.704 1000.76C-105.996 920.266 -67.0269 839.958 -16.3194 767.194C35.8905 692.276 101.778 627.28 183.184 584.712C260.983 544.033 348.654 523.446 436.169 520.582C531.112 517.478 622.448 538.519 712.456 566.89C804.659 595.954 896.226 629.831 992.903 640.644C1084.6 650.904 1174.44 635.312 1255.52 590.737C1329.33 550.158 1390.78 490.387 1440.23 422.708C1453.13 405.068 1465.22 386.867 1476.77 368.319C1477.21 367.634 1476.14 367.007 1475.72 367.684Z" fill="#EFF6FF"/>
<path d="M1474.86 356.028C1426.87 431.665 1367.54 500.474 1292.75 550.695C1215.59 602.492 1125.86 630.582 1032.72 628.04C839.163 622.757 666.289 513.83 472.745 506.748C388.598 503.669 303.304 516.389 224.688 546.947C144.397 578.158 74.1094 628.675 17.5082 693.514C-39.3902 758.7 -82.2807 834.881 -119.41 912.655C-157.512 992.493 -190.853 1074.6 -220.173 1158.05C-230.763 1188.2 -240.561 1218.58 -250.516 1248.94C-263.055 1287.16 -279.853 1323.48 -312.945 1348.12C-347.787 1374.07 -392.642 1383.81 -435.137 1387.81C-482.955 1392.31 -531.12 1387.58 -578.84 1383.91C-599.905 1382.28 -620.996 1380.72 -642.135 1380.51C-642.936 1380.5 -642.936 1381.74 -642.135 1381.75C-551.146 1382.63 -459.479 1403.47 -370.066 1376.96C-335.01 1366.55 -302.487 1347.73 -280.992 1317.45C-261.082 1289.41 -251.639 1256.24 -241.131 1223.95C-215.682 1145.78 -187.121 1068.62 -154.541 993.12C-119.36 911.623 -80.8032 830.638 -30.302 757.371C22.1555 681.256 88.8685 615.443 171.306 572.445C249.972 531.412 338.593 510.759 427.031 507.887C521.397 504.816 612.428 525.122 702.121 552.668C795.043 581.203 887.237 614.725 984.385 625.794C1075.93 636.228 1165.86 621.948 1247.71 578.991C1323.7 539.114 1387.48 479.343 1438.66 410.946C1451.82 393.364 1464.16 375.195 1475.92 356.656C1476.35 355.979 1475.28 355.352 1474.86 356.028Z" fill="#EFF6FF"/>
<path d="M1474 344.373C1425.19 419.86 1364.66 487.944 1289.03 537.405C1210.87 588.525 1120.44 616.004 1026.86 613.437C833.591 608.146 660.065 502.009 466.967 494.151C381.888 490.684 295.578 503.107 215.889 533.517C134.351 564.62 62.7432 615.426 5.33305 681.075C-51.7057 746.285 -94.5714 822.706 -130.891 900.983C-168.466 981.96 -200.584 1065.64 -226.256 1151.15C-235.641 1182.42 -243.953 1213.94 -251.11 1245.8C-259.604 1283.62 -270.508 1319.75 -300.679 1346.14C-334.803 1375.99 -381.886 1387.35 -425.883 1392.47C-473.726 1398.03 -522.131 1394.2 -570.065 1391.99C-590.734 1391.05 -611.428 1390.26 -632.114 1391C-632.906 1391.03 -632.915 1392.27 -632.114 1392.24C-540.695 1388.94 -448.112 1409.12 -359.03 1379.45C-324.872 1368.07 -293.101 1348.22 -274.248 1316.72C-256.748 1287.48 -251.944 1253.13 -243.995 1220.56C-224.415 1140.36 -197.373 1061.8 -166.254 985.402C-131.989 901.289 -93.003 817.984 -41.1977 743.091C11.6643 666.67 79.3348 601.179 162.491 558.602C241.775 518.007 330.833 497.791 419.619 495.15C514.851 492.319 606.807 512.881 697.466 540.203C790.816 568.334 883.597 601.055 981.083 611.547C1072.43 621.378 1162.21 607.048 1244.19 564.958C1320.25 525.914 1384.73 467.382 1436.58 399.843C1450.18 382.121 1462.93 363.779 1475.06 345.017C1475.5 344.323 1474.43 343.704 1474 344.373Z" fill="#EFF6FF"/>
<path d="M1473.13 332.709C1423.74 407.71 1362.35 474.794 1286.36 523.463C1206.84 574.393 1115.17 601.501 1020.58 598.818C825.006 593.271 648.616 487.58 452.934 481.249C368.135 478.509 282.255 491.237 202.905 521.688C121.796 552.816 50.3694 603.325 -6.85914 668.627C-64.7976 734.737 -108.018 812.561 -143.843 892.448C-180.41 974.011 -210.977 1058.69 -232.661 1145.45C-240.223 1175.73 -246.711 1206.32 -250.681 1237.28C-255.857 1277.6 -260.388 1316.05 -290.856 1345.99C-322.33 1376.91 -367.829 1389.71 -410.34 1396.26C-459.735 1403.87 -509.988 1400.96 -559.747 1400.18C-580.54 1399.86 -601.366 1399.78 -622.101 1401.47C-622.894 1401.54 -622.894 1402.78 -622.101 1402.71C-531.013 1395.28 -438.257 1414.44 -350 1382.64C-315.347 1370.16 -283.022 1348.68 -266.555 1314.64C-251.474 1283.46 -251.663 1247.63 -246.017 1214.11C-232.414 1133.35 -207.18 1054.09 -177.926 977.767C-145.098 892.118 -106.26 807.526 -54.1493 731.741C-1.32039 654.908 66.7133 589.268 150.125 546.542C229.088 506.103 317.667 485.756 406.081 482.553C501.611 479.095 594.128 498.732 685.34 525.436C780.019 553.154 873.989 585.867 972.581 596.672C1065.01 606.8 1156.02 593.131 1239.51 551.495C1317.72 512.492 1384.33 453.374 1437.7 384.589C1450.57 367.997 1462.68 350.853 1474.22 333.32C1474.65 332.668 1473.57 332.049 1473.13 332.709Z" fill="#EFF6FF"/>
<path d="M1472.28 321.054C1421.75 396.402 1358.66 463.172 1281.18 511.148C1200.98 560.807 1109.16 586.916 1014.72 584.225C817.684 578.604 639.172 474.11 441.922 468.472C355.621 466.004 268.231 479.252 187.675 510.743C106.756 542.374 35.5276 593.288 -21.3873 658.879C-79.4165 725.765 -122.48 804.505 -157.397 885.49C-193.023 968.109 -222.088 1054.34 -239.521 1142.71C-245.786 1174.47 -250.491 1206.6 -251.234 1239.01C-252.167 1279.75 -253.537 1317.35 -283.543 1348.55C-313.622 1379.82 -358.576 1393.38 -400.154 1400.79C-448.633 1409.42 -498.193 1407.72 -547.217 1408.36C-568.876 1408.64 -590.569 1409.23 -612.081 1411.95C-612.857 1412.05 -612.873 1413.29 -612.081 1413.19C-520.885 1401.63 -427.171 1420.02 -339.335 1385.35C-305.458 1371.98 -274.075 1349.66 -259.786 1314.95C-246.645 1283.02 -251.482 1247.59 -248.733 1214.01C-242.031 1132.26 -218.282 1050.97 -190.91 974.044C-159.791 886.613 -121.242 800.452 -69.1149 723.388C-16.5667 645.696 51.5331 579.28 135.201 535.845C214.741 494.548 304.154 473.672 393.443 469.999C489.609 466.053 582.967 485.063 675.013 511.288C770.799 538.586 865.8 571.067 965.3 581.971C1058.85 592.223 1151.13 578.909 1235.99 537.504C1314.28 499.302 1381.59 441.471 1435.63 373.512C1448.94 356.772 1461.45 339.429 1473.37 321.673C1473.79 321.013 1472.72 320.394 1472.28 321.054Z" fill="#EFF6FF"/>
<path d="M1471.42 309.398C1420.3 384.275 1356.37 450.072 1278.53 497.255C1195.74 547.442 1101.32 572.998 1004.47 569.482C901.847 565.759 802.975 535.589 705.027 507.342C613.674 480.993 521.347 457.278 425.735 455.594C339.64 454.075 252.63 467.91 172.47 499.814C90.0487 532.617 17.8382 585.413 -39.3326 653.174C-95.7357 720.028 -137.586 798.157 -170.918 878.688C-205.901 963.214 -233.652 1052.1 -246.397 1142.88C-250.979 1175.52 -253.216 1208.22 -250.434 1241.12C-248.849 1259.83 -246.604 1278.57 -249.509 1297.27C-252.894 1319.1 -263.484 1338.56 -278.862 1354.31C-308.843 1385.04 -354.185 1398.69 -395.251 1406.39C-443.581 1415.46 -493.15 1414.47 -542.082 1416.73C-562.215 1417.67 -582.364 1419.06 -602.25 1422.48C-603.034 1422.61 -602.704 1423.81 -601.919 1423.68C-554.538 1415.53 -505.853 1417.44 -458.002 1414.66C-413.898 1412.1 -369.555 1405.62 -328.67 1388.09C-295.198 1373.74 -264.334 1350.1 -252.365 1314.37C-240.908 1280.14 -250.863 1243.81 -250.591 1208.73C-249.955 1126.76 -227.981 1043.7 -202.335 966.442C-172.99 878.044 -134.937 791.14 -83.0403 713.531C-30.9378 635.609 36.939 568.995 120.293 525.147C200.412 482.999 290.65 461.587 380.814 457.46C478.316 452.994 573.12 471.715 666.635 497.725C763.081 524.544 858.759 556.53 958.754 567.369C1052.76 577.563 1145.55 564.702 1231.3 524.107C1310.72 486.516 1379.48 429.105 1434.65 361.072C1448 344.612 1460.55 327.542 1472.5 310.042C1472.94 309.365 1471.86 308.738 1471.42 309.398Z" fill="#EFF6FF"/>
<path d="M1470.56 297.743C1417.86 373.594 1351.57 439.514 1271.39 486.053C1186.57 535.275 1090.72 559.147 992.738 554.64C889.309 549.886 789.693 519.6 690.672 491.815C598.675 466.003 505.655 443.468 409.573 442.792C322.562 442.172 234.767 456.973 154.136 490.172C71.5253 524.189 -0.503621 578.446 -57.1379 647.471C-112.971 715.521 -154.137 794.731 -186.115 876.426C-219.108 960.73 -244.474 1049.82 -252.324 1140.29C-255.189 1173.32 -255.065 1206.1 -249.088 1238.77C-245.655 1257.55 -241.47 1276.28 -242.914 1295.48C-244.689 1319.11 -255.205 1340.6 -271.458 1357.71C-300.861 1388.66 -345.98 1403.08 -386.675 1411.46C-434.815 1421.37 -484.342 1421.37 -533.176 1425.14C-552.995 1426.66 -572.789 1428.75 -592.237 1432.96C-593.013 1433.13 -592.683 1434.32 -591.907 1434.16C-545.649 1424.13 -497.55 1424.71 -450.54 1421.03C-406.709 1417.59 -362.761 1410.66 -322.248 1392.78C-287.942 1377.64 -255.824 1352.98 -245.151 1315.38C-234.948 1279.43 -249.27 1243.58 -252.126 1207.69C-254.941 1172.22 -251.614 1136.19 -246.488 1101.08C-239.736 1054.89 -228.947 1009.29 -215.451 964.626C-188.682 876.022 -151.974 789.027 -101.77 711.055C-50.0637 630.755 18.0113 561.756 102.414 516.042C182.788 472.516 273.769 450.122 364.734 445.103C462.022 439.729 556.99 456.973 650.613 482.083C747.579 508.085 843.513 539.865 943.607 551.776C1039.7 563.217 1134.77 552.114 1223.35 512.154C1304.93 475.356 1376.14 418.044 1433.08 349.317C1446.67 332.907 1459.45 315.87 1471.61 298.37C1472.08 297.71 1471 297.091 1470.56 297.743Z" fill="#EFF6FF"/>
<path d="M1469.69 286.08C1416.17 361.807 1348.69 427.001 1267.69 472.781C1181.74 521.358 1085.03 544.595 986.407 540.014C881.657 535.143 780.655 504.891 680.156 477.42C587.59 452.119 493.968 430.261 397.497 430.055C310.197 429.865 222.237 444.872 141.376 478.278C58.1868 512.642 -14.3456 567.468 -71.1366 637.219C-126.227 704.889 -166.79 783.629 -197.579 864.978C-229.954 950.486 -253.867 1041.5 -257.68 1133.22C-259.109 1167.56 -256.987 1201.33 -247.841 1234.56C-242.682 1253.3 -236.549 1271.9 -236.186 1291.53C-235.74 1315.66 -244.473 1338.24 -259.884 1356.71C-287.735 1390.08 -333.564 1406.23 -374.581 1415.83C-423.167 1427.21 -473.445 1428.2 -522.882 1433.47C-542.849 1435.6 -562.776 1438.37 -582.223 1443.45C-582.991 1443.65 -582.669 1444.85 -581.893 1444.65C-534.421 1432.25 -484.416 1431.93 -435.854 1426.8C-392.658 1422.25 -349.363 1414 -309.981 1394.96C-276.063 1378.56 -245.076 1352.16 -236.978 1313.66C-229.062 1276.01 -247.503 1240.85 -253.322 1204.38C-258.894 1169.48 -257.433 1133.41 -253.933 1098.39C-249.087 1049.93 -239.157 1001.97 -226.016 955.1C-200.997 865.836 -164.809 778.297 -114.82 700.027C-63.1628 619.15 5.37446 549.77 90.2226 503.933C170.853 460.374 261.925 437.856 353.112 432.548C450.73 426.861 546.227 443.518 640.386 468.067C738.64 493.681 835.82 525.238 937.054 537.166C1034.02 548.59 1130.2 537.777 1219.89 498.18C1301.57 462.124 1373.37 406.134 1431.02 338.215C1445.06 321.673 1458.25 304.446 1470.77 286.732C1471.23 286.055 1470.16 285.436 1469.69 286.08Z" fill="#EFF6FF"/>
<path d="M1468.83 274.424C1414.39 350.176 1345.55 414.751 1263.54 459.779C1175.51 508.11 1076.97 530.438 976.733 525.221C871.322 519.732 769.619 489.644 668.212 462.685C574.226 437.699 479.183 416.633 381.425 417.359C294.323 418.003 206.636 433.588 126.146 467.415C42.1314 502.719 -30.8716 558.842 -87.6131 630.078C-142.349 698.797 -182.334 778.594 -211.81 861.073C-242.633 947.316 -264.342 1039.86 -263.03 1131.93C-262.51 1168.17 -256.996 1202.36 -244.284 1236.38C-237.35 1254.95 -230.169 1273.57 -229.219 1293.58C-228.155 1316.09 -235.262 1337.68 -248.584 1355.76C-275.172 1391.82 -322.339 1409.84 -364.206 1420.59C-412.032 1432.86 -461.708 1435.03 -510.484 1441.51C-531.31 1444.29 -552.087 1447.78 -572.211 1453.92C-572.971 1454.15 -572.649 1455.35 -571.881 1455.12C-525.565 1440.97 -476.153 1439.28 -428.368 1433.29C-384.404 1427.78 -340.383 1418.8 -300.604 1398.52C-266.34 1381.04 -235.377 1353.22 -229.038 1313.43C-222.797 1274.24 -244.507 1239.99 -253.686 1203.26C-262.279 1168.91 -262.914 1132.58 -261.098 1097.4C-258.589 1048.76 -250.359 1000.45 -238.564 953.251C-215.806 862.146 -180.204 772.807 -130.429 693.019C-79.6558 611.638 -11.7706 541.582 72.4916 494.812C152.891 450.188 244.02 426.712 335.439 420.364C434.072 413.513 530.832 429.064 626.262 453.077C726.307 478.245 825.13 509.992 927.932 522.233C1026.23 533.938 1123.77 523.859 1215.18 484.725C1297.45 449.511 1370.32 394.478 1428.92 327.063C1443.42 310.389 1457.01 292.989 1469.9 275.052C1470.37 274.4 1469.3 273.78 1468.83 274.424Z" fill="#EFF6FF"/>
<path d="M1467.98 262.769C1412.69 338.405 1342.68 402.262 1259.85 446.539C1171.32 493.862 1072.54 515.662 972.349 510.71C866.262 505.46 763.708 475.892 661.492 449.362C566.607 424.739 470.706 403.88 372.18 404.656C284.162 405.349 195.517 421.041 114.177 455.198C28.5854 491.138 -45.7218 548.54 -102.934 621.584C-157.826 691.665 -197.58 773.014 -225.811 857.168C-255.147 944.625 -274.644 1039.38 -267.752 1132.04C-265.085 1167.88 -256.765 1200.92 -241.733 1233.6C-232.959 1252.68 -224.044 1271.92 -222.03 1293.08C-219.768 1316.89 -226.718 1340.13 -240.71 1359.45C-266.612 1395.2 -312.78 1413.88 -353.821 1425.38C-400.889 1438.59 -450.028 1441.82 -498.152 1449.45C-519.836 1452.9 -541.447 1457.15 -562.207 1464.4C-562.958 1464.67 -562.636 1465.86 -561.877 1465.6C-516.642 1449.78 -467.734 1446.77 -420.625 1439.9C-375.944 1433.37 -331.312 1423.64 -291.178 1402.16C-257.376 1384.06 -227.09 1355.87 -221.32 1316.14C-215.385 1275.3 -239.323 1241.75 -252.39 1205.06C-264.714 1170.44 -267.818 1132.92 -267.743 1096.41C-267.636 1047.01 -260.975 997.652 -250.318 949.479C-229.814 856.714 -194.765 765.634 -145.057 684.542C-94.6298 602.285 -26.7529 531.602 57.7238 484.089C139.122 438.309 231.779 414.355 324.592 407.751C424.637 400.627 522.882 416.195 619.815 440.051C720.462 464.823 819.971 495.909 923.284 507.837C1021.8 519.212 1119.64 509.224 1211.54 470.84C1294.51 436.18 1368.43 381.848 1427.97 314.624C1442.49 298.222 1456.12 281.069 1469.04 263.388C1469.52 262.752 1468.44 262.133 1467.98 262.769Z" fill="#EFF6FF"/>
<path d="M1467.12 251.113C1410.9 326.782 1339.54 390.02 1255.7 433.546C1165.12 480.58 1064.51 501.472 962.708 495.909C856.464 490.106 753.646 460.976 651.026 435.057C555.38 410.904 458.679 390.672 359.542 391.968C270.624 393.132 181.145 409.302 99.1367 444.26C13.2237 480.886 -61.2073 539.13 -118.205 613.057C-172.932 684.038 -212.215 766.451 -239.092 851.703C-267.042 940.34 -284.112 1037.1 -272.061 1130.07C-267.372 1166.25 -256.386 1198.55 -239.026 1230.59C-228.898 1249.29 -218.712 1268.19 -215.129 1289.4C-210.804 1315.02 -216.896 1340.94 -231.919 1362.16C-257.731 1398.61 -303.643 1418.35 -345.047 1430.69C-392.024 1444.68 -441.212 1448.87 -489.237 1457.92C-510.625 1461.96 -531.897 1466.9 -552.194 1474.89C-552.929 1475.18 -552.607 1476.37 -551.864 1476.08C-507.744 1458.72 -459.372 1454.37 -412.949 1446.65C-367.533 1439.1 -322.182 1428.6 -281.677 1405.86C-247.949 1386.93 -218.043 1357.94 -213.148 1317.73C-208.006 1275.51 -233.562 1242.36 -250.219 1206.07C-266.571 1170.44 -272.407 1130.97 -274.001 1092.07C-275.957 1044.19 -271.252 996.067 -262.428 949.032C-244.705 854.568 -210.589 761.647 -161.392 678.994C-111.189 594.658 -42.7255 522.133 42.9812 473.382C124.916 426.769 218.406 402.294 312.045 395.286C412.759 387.75 511.813 402.748 609.596 426.117C710.062 450.129 809.364 480.448 912.24 492.706C1012.71 504.683 1112.62 495.554 1206.84 457.41C1290.92 423.376 1366.35 369.54 1427 302.208C1441.54 286.062 1455.21 269.174 1468.17 251.732C1468.66 251.096 1467.59 250.477 1467.12 251.113Z" fill="#EFF6FF"/>
<path d="M1466.26 239.45C1408.87 315.466 1335.78 378.332 1250.48 421.091C1159.13 466.879 1058.26 486.871 956.36 481.283C846.996 475.282 741.165 445.376 635.317 419.506C538.071 395.741 439.751 376.706 339.195 379.488C249.534 381.973 159.502 399.547 77.4107 436.296C-7.16505 474.159 -80.0277 533.286 -135.556 607.387C-190.547 680.761 -229.302 765.89 -254.413 853.834C-279.853 942.917 -293.374 1041.1 -275.008 1132.91C-271.681 1149.53 -267.166 1165.96 -260.76 1181.67C-252.514 1201.9 -240.529 1219.99 -229.311 1238.62C-217.779 1257.77 -207.981 1278.08 -205.909 1300.64C-203.573 1326.06 -211.762 1351.28 -227.594 1371.19C-255.205 1405.9 -300.176 1425.33 -341.572 1437.74C-388.375 1451.77 -437.324 1456.74 -484.887 1467.51C-504.491 1471.95 -523.873 1477.39 -542.322 1485.45C-543.048 1485.77 -542.421 1486.84 -541.695 1486.53C-497.376 1467.14 -447.998 1461.68 -400.881 1452.73C-356.752 1444.35 -312.797 1433.19 -273.596 1410.53C-239.769 1390.97 -209.723 1361.59 -204.91 1320.95C-199.85 1278.19 -225.307 1244.71 -245.456 1209.76C-289.841 1132.79 -287.059 1033.98 -274.083 948.959C-259.308 852.183 -225.893 756.678 -176.705 672.003C-127.483 587.263 -59.7959 514.111 25.2092 464.485C106.78 416.865 200.122 391.399 293.852 383.326C395.086 374.61 494.999 388.271 593.607 410.888C697.309 434.678 799.673 465.657 905.653 478.113C1007.03 490.033 1108 481.225 1203.37 443.535C1288.11 410.022 1364.5 356.945 1426.06 289.827C1440.64 273.937 1454.33 257.288 1467.32 240.078C1467.8 239.442 1466.73 238.823 1466.26 239.45Z" fill="#EFF6FF"/>
<path d="M1465.39 227.793C1407.05 303.867 1332.62 366.056 1246.31 408.088C1151.73 454.149 1047.68 473.002 942.905 466.233C834.086 459.2 728.667 429.922 623.034 404.877C525.07 381.657 426.024 363.489 324.931 366.931C233.883 370.035 142.44 388.509 59.4819 426.768C-25.4819 465.953 -98.2372 526.64 -153.188 602.268C-207.222 676.641 -244.953 762.686 -268.033 851.455C-291.319 941 -301.555 1040.03 -278.244 1130.71C-274.009 1147.2 -268.503 1163.42 -261.124 1178.76C-250.929 1199.96 -236.666 1218.53 -223.764 1238.08C-210.953 1257.49 -200.172 1278.54 -197.646 1301.98C-194.955 1326.96 -202.137 1351.95 -217.02 1372.13C-243.797 1408.45 -289.239 1429.3 -330.998 1442.74C-377.149 1457.61 -425.595 1463.62 -472.539 1475.39C-493.018 1480.52 -513.241 1486.76 -532.301 1495.92C-533.019 1496.27 -532.392 1497.33 -531.674 1496.99C-488.412 1476.2 -439.562 1469.39 -393.014 1459.62C-347.672 1450.09 -302.471 1437.96 -262.601 1413.55C-229.336 1393.18 -200.379 1363.2 -196.293 1322.64C-191.786 1277.94 -219.29 1243.53 -242.485 1208.49C-292.111 1133.54 -295.388 1036.49 -285.351 949.849C-273.902 851.042 -241.602 753.185 -192.818 666.529C-144.471 580.649 -77.2048 506.235 7.75076 455.428C89.5696 406.495 183.523 380.089 278.045 371.174C379.741 361.591 480.405 374.278 579.731 396.194C683.903 419.182 786.639 449.683 892.784 462.733C995.528 475.363 1098.05 467.958 1195.41 431.35C1281.51 398.975 1359.75 346.79 1422.85 279.887C1438.29 263.51 1452.78 246.283 1466.48 228.421C1466.95 227.785 1465.87 227.174 1465.39 227.793Z" fill="#EFF6FF"/>
<path d="M1464.63 216.014C1405.41 292.047 1329.81 353.551 1242.64 394.857C1147.15 440.1 1042.48 458.334 937.251 451.656C827.573 444.698 721.156 415.782 614.524 391.175C515.181 368.244 414.723 350.398 312.367 354.352C219.356 357.943 126.005 377.299 41.6192 417.293C-44.4589 458.095 -117.586 521.151 -172.057 599.173C-225.456 675.659 -262.114 763.925 -282.635 854.741C-302.751 943.758 -308.752 1042.27 -280.522 1130.29C-275.255 1146.71 -268.635 1162.76 -260.108 1177.77C-248.428 1198.31 -233.149 1216.3 -219.339 1235.38C-189.606 1276.49 -175.417 1327.79 -206.347 1372.98C-232.026 1410.5 -277.121 1432.71 -318.847 1447.27C-365.89 1463.69 -415.582 1470.68 -463.466 1484.11C-483.707 1489.79 -503.633 1496.65 -522.296 1506.43C-523.006 1506.8 -522.379 1507.86 -521.669 1507.5C-478.382 1484.82 -428.74 1476.78 -381.607 1465.83C-336.281 1455.29 -291.046 1442.17 -251.614 1416.63C-218.439 1395.13 -190.209 1363.96 -187.386 1322.76C-184.282 1277.55 -212.422 1242.79 -237.912 1208.72C-292.499 1135.77 -302.834 1042.2 -296.271 953.523C-288.933 854.452 -259.134 755.976 -212.686 668.28C-165.536 579.246 -98.4104 501.596 -12.4644 448.165C69.2058 397.391 163.695 369.582 258.903 359.462C362.183 348.483 464.713 360.171 565.888 381.641C670.539 403.838 773.671 433.876 880.022 447.389C983.93 460.596 1087.85 454.677 1187 419.249C1274.61 387.948 1354.8 336.712 1419.58 269.9C1435.87 253.102 1451.12 235.363 1465.5 216.906C1465.99 216.27 1465.12 215.387 1464.63 216.014Z" fill="#EFF6FF"/>
<path d="M1463.77 204.359C1403.6 280.425 1326.66 341.343 1238.48 381.865C1140.72 426.786 1034.11 444.046 927.032 436.782C814.308 429.138 704.919 399.348 595.052 375.03C495.964 353.098 395.771 336.976 293.976 342.061C201.352 346.684 108.563 366.792 24.8377 407.371C-61.2157 449.081 -134.045 513.087 -187.881 591.992C-241.362 670.368 -277.526 760.995 -295.785 853.965C-313.375 943.543 -315.595 1042.69 -282.47 1129.15C-276.04 1145.93 -268.099 1162.13 -258.218 1177.15C-245.382 1196.67 -229.542 1213.81 -215.179 1232.15C-182.978 1273.27 -165.454 1326.01 -195.698 1373.8C-220.767 1413.42 -267.117 1437.22 -309.809 1452.86C-356.827 1470.08 -406.618 1478.03 -454.362 1492.88C-474.379 1499.11 -494.017 1506.56 -512.284 1516.92C-512.977 1517.31 -512.35 1518.38 -511.657 1517.99C-468.353 1493.44 -417.935 1484.16 -370.207 1472.01C-325.336 1460.58 -280.679 1446.61 -241.899 1420.55C-208.732 1398.25 -180.766 1366.22 -178.455 1324.57C-175.871 1277.95 -205.34 1242.02 -233.232 1208.19C-261.471 1173.94 -281.025 1137.25 -292.334 1094.25C-304.32 1048.66 -307.952 1001.01 -306.268 953.994C-302.652 852.636 -273.984 751.213 -227.577 661.222C-181.699 572.239 -115.844 494.407 -31.2105 440.142C50.3606 387.849 145.246 358.876 241.04 347.699C343.388 335.755 445.422 345.743 546.061 365.933C653.361 387.453 758.92 417.871 867.616 432.069C973.315 445.878 1079.2 441.116 1180.59 406.364C1269.97 375.731 1352.27 324.851 1418.64 257.51C1434.95 240.968 1450.24 223.477 1464.65 205.259C1465.14 204.615 1464.26 203.732 1463.77 204.359Z" fill="#EFF6FF"/>
<path d="M1462.91 192.696C1401.87 268.695 1323.79 328.846 1234.8 368.641C1134.97 413.289 1026.37 429.691 917.597 421.932C804.7 413.875 695.006 384.671 584.742 360.997C483.773 339.312 381.689 323.703 278.144 329.687C184.183 335.119 90.1147 356.317 5.67925 398.638C-81.0097 442.089 -153.699 508.332 -206.685 589.391C-259.159 669.658 -294.009 762.332 -309.156 856.953C-323.387 945.896 -321.216 1043.64 -284.269 1127.2C-276.171 1145.51 -266.15 1162.82 -254.008 1178.75C-239.876 1197.3 -223.351 1213.8 -208.55 1231.78C-174.591 1273.06 -156.035 1327.53 -186.321 1376.69C-210.771 1416.39 -255.939 1440.99 -298.128 1457.5C-344.849 1475.79 -394.574 1484.79 -442.103 1500.63C-462.996 1507.6 -483.442 1515.9 -502.287 1527.39C-502.964 1527.8 -502.345 1528.87 -501.66 1528.46C-458.852 1502.36 -408.326 1491.77 -360.541 1478.6C-315.091 1466.08 -269.857 1451.12 -230.969 1423.67C-197.836 1400.27 -170.522 1367 -169.349 1324.72C-168.054 1278.02 -197.58 1241.66 -226.974 1208.79C-242.897 1190.98 -258.383 1172.85 -270.335 1152.07C-280.563 1134.3 -288.569 1115.29 -294.909 1095.81C-309.453 1051.07 -315.413 1003.69 -315.719 956.75C-316.379 855.005 -290.369 752.633 -245.968 661.346C-201.79 570.521 -136.992 490.461 -52.7215 434.025C29.4688 378.983 126.03 348.202 223.689 335.911C327.061 322.911 430.382 331.949 532.309 351.545C640.708 372.38 747.315 402.459 856.902 416.93C963.723 431.037 1070.88 427.264 1173.83 393.503C1264.07 363.903 1347.67 314.177 1415.35 247.398C1432.55 230.427 1448.64 212.407 1463.77 193.579C1464.28 192.96 1463.41 192.076 1462.91 192.696Z" fill="#EFF6FF"/>
<path d="M1462.05 181.04C1399.31 257.997 1318.73 318.016 1227.46 357.019C1126.21 400.289 1016.8 415.238 907.362 407.024C792.063 398.374 679.958 368.699 567.078 345.479C465.539 324.587 362.886 310.413 259.036 317.611C163.283 324.248 67.4649 347.187 -17.697 392.257C-104.411 438.144 -176.093 507.102 -227.477 590.481C-278.565 673.381 -311.508 768.779 -322.52 865.53C-332.64 954.464 -325.112 1051.88 -282.164 1132.03C-260.017 1173.37 -224.572 1202.45 -195.689 1238.55C-162.671 1279.82 -148.416 1334.83 -178.396 1382.14C-203.473 1421.71 -248.155 1446.65 -290.459 1463.78C-337.114 1482.67 -386.847 1492.57 -434.088 1509.84C-454.369 1517.25 -474.139 1526.05 -492.266 1537.88C-492.934 1538.31 -492.307 1539.38 -491.638 1538.95C-450.085 1511.84 -400.517 1499.93 -353.483 1486.05C-307.942 1472.6 -262.65 1457.22 -223.598 1429.42C-190.126 1405.59 -162.101 1371.99 -160.261 1329.24C-158.255 1282.74 -186.502 1244.89 -216.837 1212.81C-234.229 1194.42 -252.15 1176.46 -266.505 1155.49C-278.144 1138.49 -287.595 1120.02 -295.28 1100.92C-312.548 1057.98 -321.24 1011.78 -324.08 965.707C-330.452 862.269 -307.406 757.14 -264.664 663.096C-222.17 569.581 -157.95 486.408 -73.2416 427.52C7.62788 371.299 103.009 339.015 200.024 325.107C305.187 310.034 410.812 317.669 514.942 336.597C625.743 356.738 734.62 386.991 846.386 401.849C953.827 416.137 1061.63 413.413 1165.7 381.064C1258.37 352.256 1344.69 302.696 1414.41 235.009C1431.63 218.293 1447.76 200.521 1462.92 181.924C1463.43 181.305 1462.55 180.421 1462.05 181.04Z" fill="#EFF6FF"/>
<path d="M1461.19 169.385C1396.52 247.556 1313.09 307.533 1219.18 345.685C1115.88 387.651 1004.98 400.949 894.254 391.878C778.839 382.426 666.487 353.271 553.21 330.852C450.218 310.463 346.063 297.198 240.975 305.56C145.098 313.196 49.3871 337.043 -35.4776 383.111C-122.538 430.368 -193.997 501.052 -244.507 586.065C-294.801 670.707 -326.317 768.003 -334.134 866.199C-341.274 955.967 -329.281 1053.56 -281.726 1131.75C-256.839 1172.66 -218.835 1201.22 -188.673 1237.69C-155.003 1278.4 -138.981 1333.5 -166.889 1381.92C-190.497 1422.87 -234.808 1449.38 -277.005 1467.71C-324.897 1488.52 -376.364 1499.54 -424.876 1518.71C-444.959 1526.65 -464.456 1536.02 -482.228 1548.37C-482.881 1548.82 -482.261 1549.9 -481.601 1549.44C-440.023 1520.56 -389.72 1507.37 -342.042 1492.27C-296.015 1477.7 -250.161 1461.12 -211.266 1431.69C-178.611 1406.99 -152.015 1372.83 -150.909 1330.31C-149.679 1283.18 -178.454 1244.54 -210.028 1212.63C-228.229 1194.24 -247.354 1176.69 -263.343 1156.25C-276.229 1139.77 -286.96 1121.67 -295.866 1102.77C-315.859 1060.33 -326.986 1013.95 -331.856 967.424C-342.826 862.691 -322.124 755.159 -280.331 658.961C-239.48 564.934 -176.613 480.911 -93.0859 420.735C-12.0348 362.343 84.3203 328.565 182.557 313.559C288.809 297.33 395.887 304.099 501.38 322.432C612.626 341.773 721.941 371.365 833.946 386.512C943.096 401.279 1052.81 399.686 1158.99 368.113C1253.54 339.998 1342.04 290.9 1413.5 222.635C1430.73 206.167 1446.89 188.635 1462.08 170.269C1462.57 169.649 1461.69 168.766 1461.19 169.385Z" fill="#EFF6FF"/>
<path d="M1460.33 157.729C1394.3 236.42 1308.89 295.927 1213.33 333.262C1107.35 374.675 994.158 386.561 881.269 376.705C765.029 366.552 651.719 337.595 537.361 315.919C432.165 295.984 325.781 283.867 218.753 293.978C122.216 303.1 26.1006 328.697 -58.4752 376.969C-146.427 427.165 -217.35 501.662 -266.151 590.142C-314.539 677.871 -343.223 778.164 -345.658 878.456C-347.829 967.836 -329.661 1063.94 -276.37 1137.63C-247.71 1177.26 -206.462 1204.92 -176.317 1243.14C-143.356 1284.93 -130.504 1340.73 -159.296 1388.39C-183.738 1428.83 -227.453 1455.5 -269.617 1474.27C-316.396 1495.09 -366.575 1507.04 -413.783 1526.83C-434.345 1535.45 -454.238 1545.59 -472.233 1558.85C-472.868 1559.32 -472.249 1560.4 -471.606 1559.92C-430.737 1529.8 -380.715 1515.32 -333.202 1499.31C-288.124 1484.13 -243.352 1467.33 -204.968 1438.49C-171.537 1413.38 -143.604 1378.63 -141.623 1335.26C-139.535 1289.48 -165.701 1249.9 -196.615 1218.64C-214.94 1200.11 -234.924 1183.29 -252.729 1164.24C-268.066 1147.83 -281.322 1129.78 -292.45 1110.28C-315.669 1069.59 -329.917 1024.04 -337.618 977.956C-355.077 873.487 -338.955 764.742 -300.58 666.587C-263.129 570.802 -202.896 483.956 -121.416 420.545C-39.8117 357.035 59.1682 319.782 160.567 302.794C267.19 284.932 375.126 290.049 481.453 307.276C596.537 325.923 709.509 356.11 825.138 371.653C934.304 386.33 1044.16 385.538 1150.77 355.516C1246.7 328.507 1337.06 280.466 1410.2 212.449C1428.33 195.593 1445.3 177.565 1461.21 158.604C1461.71 157.994 1460.84 157.119 1460.33 157.729Z" fill="#EFF6FF"/>
<path d="M1459.47 146.066C1391.8 225.549 1304.05 284.684 1206.46 321.169C1099 361.344 984.781 371.967 871.001 361.74C752.433 351.083 636.762 321.871 519.862 300.78C413.395 281.572 305.698 270.792 197.704 282.431C100.128 292.947 3.12065 320.311 -81.4139 371.068C-169.143 423.748 -238.844 500.837 -285.713 591.538C-331.889 680.893 -357.709 782.399 -355.811 883.17C-354.135 972.17 -331.13 1066.16 -274.66 1136.81C-242.294 1177.31 -196.928 1205.24 -165.544 1246.53C-133.731 1288.37 -121.655 1343.18 -149.101 1390.57C-173.576 1432.82 -218.447 1460.9 -261.775 1480.72C-308.256 1501.98 -358.081 1514.88 -404.71 1535.8C-425.091 1544.93 -444.703 1555.67 -462.36 1569.43C-462.987 1569.91 -462.104 1570.79 -461.485 1570.3C-419.767 1537.8 -367.771 1522.02 -318.674 1504.39C-274.107 1488.38 -229.937 1470.43 -192.528 1440.7C-159.006 1414.06 -132.08 1377.41 -132.055 1332.98C-132.031 1286.42 -159.741 1246.76 -191.909 1215.6C-227.841 1180.79 -266.695 1150.9 -293.604 1107.91C-318.261 1068.51 -334.39 1024.08 -343.932 978.724C-365.774 874.874 -353.153 765.568 -317.105 666.365C-281.701 568.937 -222.574 479.928 -141.589 414.586C-60.1749 348.888 39.3333 309.893 141.722 291.651C248.627 272.6 357.264 276.479 464.235 292.741C580.392 310.405 694.395 340.121 810.842 356.086C922.938 371.456 1035.86 371.802 1145.69 342.004C1242.85 315.639 1334.77 268.249 1409.23 200.084C1427.37 183.475 1444.38 165.679 1460.32 146.949C1460.86 146.338 1459.99 145.463 1459.47 146.066Z" fill="#EFF6FF"/>
<path d="M1458.61 134.411C1390.07 213.803 1301.18 272.13 1202.82 307.847C1093.37 347.592 977.327 357.415 861.879 346.882C741.875 335.929 624.652 306.914 506.134 286.435C398.974 267.911 290.584 258.006 182.119 270.413C82.7679 281.771 -15.9478 310.513 -101.291 363.59C-189.516 418.466 -258.721 498.246 -304.039 591.464C-348.638 683.213 -371.668 786.956 -365.023 889.023C-359.187 978.708 -330.585 1072.03 -269.172 1139.61C-233.454 1178.92 -186.123 1206.94 -154.549 1250.12C-123.405 1292.7 -112.583 1347.37 -139.947 1394.76C-164.298 1436.93 -208.385 1465.58 -251.334 1486.07C-297.584 1508.14 -347.284 1522.01 -393.633 1543.89C-414.484 1553.73 -434.493 1565.26 -452.348 1579.92C-452.967 1580.42 -452.083 1581.3 -451.473 1580.79C-411.29 1547.81 -360.83 1530.75 -312.855 1512.63C-268.148 1495.75 -223.78 1477.52 -185.958 1447.62C-152.263 1420.99 -124.313 1384.62 -122.58 1340.16C-120.739 1292.98 -147.525 1251.21 -180.006 1219.37C-216.805 1183.29 -259.423 1154.41 -289.833 1112.08C-317.172 1074.01 -336.108 1030.27 -348.184 985.114C-375.721 882.147 -367.772 771.949 -334.894 671.194C-302.33 571.397 -244.73 479.252 -164.381 411.078C-83.1067 342.12 17.4912 300.682 121.548 280.846C229.195 260.326 339.038 262.959 447.147 278.337C565.013 295.102 680.668 324.521 798.616 340.799C911.819 356.425 1025.96 357.869 1137.3 329.35C1235.9 304.091 1329.73 257.783 1405.94 189.84C1424.99 172.861 1442.8 154.602 1459.46 135.294C1460 134.684 1459.13 133.809 1458.61 134.411Z" fill="#EFF6FF"/>
<path d="M1457.75 122.755C1387.41 203.105 1295.92 261.084 1195.3 295.902C1082.54 334.921 963.608 342.928 845.444 331.33C725.316 319.535 607.772 291.048 488.833 271.567C380.022 253.746 269.939 245.12 160.146 259.219C60.1094 272.063 -38.986 302.629 -123.892 358.042C-211.151 414.981 -278.763 496.718 -321.91 591.29C-364.297 684.203 -384.306 788.548 -373.756 890.434C-364.387 980.928 -330.99 1073.25 -266.018 1138.83C-227.329 1177.87 -177.86 1206.33 -145.23 1251.3C-113.805 1294.6 -102.942 1349.99 -130.289 1398.2C-154.376 1440.67 -197.811 1469.98 -240.586 1491.29C-287.298 1514.55 -337.676 1529.47 -384.347 1552.84C-405.024 1563.19 -424.777 1575.27 -442.326 1590.4C-442.929 1590.92 -442.054 1591.8 -441.452 1591.28C-401.236 1556.6 -350.107 1538.22 -301.455 1518.84C-256.245 1500.84 -211.34 1481.4 -173.592 1449.97C-139.724 1421.78 -112.658 1383.49 -112.831 1337.84C-113.004 1289.71 -141.524 1247.77 -175.326 1215.88C-212.801 1180.54 -256.286 1152.36 -288.479 1111.55C-318.286 1073.76 -339.624 1029.65 -353.723 983.767C-385.255 881.106 -380.624 769.893 -349.521 667.727C-319.169 568.045 -263.484 475.388 -185.116 406.157C-103.982 334.483 -2.44328 290.99 103.016 269.818C209.756 248.389 319.07 249.586 426.66 263.602C547.423 279.335 665.884 308.828 786.491 325.536C901.988 341.533 1018.53 343.844 1132.41 315.762C1232.18 291.155 1327.52 245.524 1405 177.482C1424.06 160.751 1441.91 142.723 1458.61 123.638C1459.14 123.036 1458.28 122.153 1457.75 122.755Z" fill="#EFF6FF"/>
<path d="M1456.89 111.1C1384.9 192.217 1291.05 249.727 1188.43 283.644C1074.23 321.392 954.246 328.219 835.167 316.349C712.818 304.157 592.971 275.621 471.621 256.834C363.636 240.11 254.412 232.665 145.708 247.151C42.1553 260.953 -60.3163 293.69 -146.98 353.123C-233.364 412.365 -299.309 496.454 -340.062 592.677C-380.228 687.522 -396.663 793.212 -381.401 895.412C-367.541 988.225 -327.589 1079.4 -257.005 1142.92C-215.889 1179.93 -166.263 1208.85 -134.095 1254.91C-103.644 1298.51 -93.8049 1353.3 -120.327 1401.27C-144.603 1445.19 -189.013 1475.77 -232.77 1498.04C-279.449 1521.8 -329.727 1537.7 -375.994 1562.36C-396.16 1573.1 -415.335 1585.56 -432.314 1600.91C-432.909 1601.45 -432.025 1602.32 -431.439 1601.78C-391.842 1566 -340.962 1546.32 -292.409 1526.03C-247.215 1507.15 -202.269 1487.07 -164.554 1455.12C-131.487 1427.1 -104.602 1389.56 -103.174 1344.84C-101.622 1296.11 -129.225 1252.19 -163.159 1219.46C-202.137 1181.86 -249.287 1153.82 -285.095 1112.77C-316.569 1076.68 -340.136 1034.03 -356.497 989.142C-393.419 887.867 -393.873 776.084 -366.196 672.515C-338.675 569.531 -283.791 472.937 -204.919 400.677C-124.52 327.014 -22.9316 281.729 83.0234 259.178C190.522 236.296 301.042 236.338 409.778 249.479C531.483 264.188 650.901 293.013 772.259 309.985C888.945 326.296 1006.83 329.927 1122.32 303.373C1225.15 279.732 1323.94 234.439 1404.07 165.126C1423.14 148.625 1441.02 130.837 1457.76 111.975C1458.29 111.381 1457.42 110.498 1456.89 111.1Z" fill="#EFF6FF"/>
<path d="M1456.02 99.4368C1382.98 180.645 1287.72 237.395 1184.09 270.503C1068.16 307.55 946.703 313.534 826.228 301.491C701.618 289.035 579.418 260.515 455.641 242.389C345.608 226.267 234.329 219.928 123.9 236.132C19.6541 251.427 -83.1559 286.121 -169.259 347.956C-254.165 408.923 -318.22 494.44 -356.686 591.365C-395.573 689.362 -408.582 798.091 -387.888 901.842C-369.026 996.414 -322.677 1084.41 -247.644 1146.07C-205.042 1181.08 -156.076 1210.4 -124.255 1256.6C-93.8538 1300.73 -84.1466 1355.74 -110.313 1404.29C-134.078 1448.37 -177.612 1479.64 -220.899 1502.71C-267.892 1527.75 -318.748 1544.71 -365.312 1570.64C-385.8 1582.05 -405.222 1595.23 -422.293 1611.37C-422.871 1611.91 -421.996 1612.79 -421.418 1612.24C-382.919 1575.86 -333.136 1555.01 -285.26 1534.08C-239.414 1514.04 -193.659 1493.2 -155.408 1460.24C-121.985 1431.44 -94.8031 1392.95 -93.3834 1347.46C-91.8975 1299.96 -117.693 1256.16 -150.372 1223.51C-189.804 1184.12 -239.183 1156.44 -278.26 1116.63C-311.748 1082.51 -337.866 1041.48 -356.826 997.702C-400.361 897.211 -406.543 783.513 -382.151 677.344C-358.287 573.469 -306.16 474.894 -229.649 400.198C-150.48 322.903 -48.6108 274.449 58.4668 249.685C167.047 224.575 279.366 223.023 389.77 235.116C514.24 248.753 636.374 277.479 760.307 294.755C878.083 311.182 997.113 315.746 1114.01 290.471C1218.73 267.829 1319.86 223.387 1401.97 153.793C1421.5 137.243 1439.8 119.338 1456.92 100.312C1457.43 99.7257 1456.56 98.8425 1456.02 99.4368Z" fill="#EFF6FF"/>
<path d="M1455.16 87.7813C1380.45 169.749 1282.81 225.97 1177.21 258.163C1059.13 294.161 935.856 298.808 813.714 286.286C687.676 273.368 563.924 245.154 438.505 227.894C327.3 212.581 214.8 207.422 103.529 225.054C-2.10446 241.794 -105.938 278.617 -191.909 343.399C-276.072 406.818 -338.567 495.018 -374.367 593.866C-410.39 693.3 -419.238 802.573 -393.988 905.647C-382.299 953.358 -363.52 999.501 -337.42 1041.16C-311.665 1082.28 -278.887 1117.01 -240.536 1146.61C-196.292 1180.76 -146.938 1210.69 -114.787 1257.64C-83.9975 1302.6 -74.2738 1358.38 -100.507 1407.85C-124.494 1453.09 -168.656 1485.43 -212.71 1509.42C-259.315 1534.8 -309.676 1552.66 -355.563 1579.46C-376.042 1591.42 -395.375 1605.18 -412.288 1621.86C-412.858 1622.42 -411.983 1623.29 -411.413 1622.73C-373.434 1585.29 -323.89 1563.2 -276.039 1541.34C-229.838 1520.24 -183.646 1498.53 -145.254 1464.56C-111.411 1434.61 -84.2121 1394.78 -83.5022 1348.16C-82.7593 1299.75 -109.454 1255.33 -142.951 1222.23C-182.887 1182.78 -232.769 1155.4 -273.728 1117.12C-309.395 1083.79 -337.874 1043.18 -359.121 999.328C-406.989 900.546 -418.008 786.724 -396.902 679.531C-376.166 574.204 -325.896 473.639 -250.681 396.641C-172.238 316.341 -69.4779 265.526 38.8132 239.227C148.062 212.697 261.504 210.047 372.973 221.249C499.102 233.928 622.944 262.158 748.396 279.575C867.806 296.15 988.529 301.54 1107.29 277.181C1213.3 255.431 1316.17 211.971 1399.83 142.468C1419.81 125.868 1438.54 107.856 1456.04 88.6645C1456.58 88.0702 1455.7 87.1953 1455.16 87.7813Z" fill="#EFF6FF"/>
<path d="M1454.31 76.1259C1377.72 159.043 1277.4 214.769 1169.53 245.979C1049.68 280.665 925.035 283.991 801.613 271.122C674.923 257.907 550.329 230.312 424.093 213.861C310.461 199.052 195.443 194.834 82.0754 214.282C-24.1107 232.491 -128.019 271.213 -213.296 338.215C-296.848 403.863 -357.932 494.671 -391.156 595.343C-424.521 696.436 -429.201 806.519 -399.419 909.073C-385.65 956.479 -364.775 1001.98 -336.808 1042.71C-308.429 1084.02 -272.902 1117.83 -232.562 1147.34C-186.659 1180.92 -136.702 1211.72 -104.435 1259.88C-74.1496 1305.08 -64.6404 1360.57 -90.0478 1410.25C-113.639 1456.38 -157.702 1489.78 -201.905 1514.73C-248.543 1541.06 -299.052 1559.93 -344.898 1587.76C-365.699 1600.39 -385.27 1614.88 -402.275 1632.35C-402.828 1632.92 -401.953 1633.79 -401.4 1633.23C-327.184 1557.04 -213.453 1540.06 -135.06 1468.92C-101.191 1438.19 -74.0836 1397.48 -73.5801 1350.34C-73.06 1301.94 -99.2351 1257.54 -132.385 1224C-172.89 1183.03 -224.431 1155.43 -267.941 1118.05C-305.705 1085.6 -336.61 1045.7 -360.226 1001.95C-412.543 905.012 -428.797 791.19 -411.297 682.866C-394.07 576.242 -346.029 473.763 -272.497 394.371C-195.606 311.347 -92.9533 257.965 15.7504 229.767C125.56 201.281 240.224 197.129 352.815 207.199C480.975 218.665 606.856 246.433 734.166 264.106C854.814 280.854 976.84 287.384 1097.16 264.519C1205.4 243.949 1310.94 201.496 1396.99 131.695C1417.69 114.906 1437.08 96.5971 1455.16 77.0174C1455.73 76.4148 1454.85 75.5399 1454.31 76.1259Z" fill="#EFF6FF"/>
<path d="M1453.45 64.4705C1375.36 147.915 1272.97 202.965 1163.47 233.267C1041.37 267.061 914.749 269.199 789.462 255.951C661.55 242.421 535.578 215.281 407.946 199.679C293.473 185.688 177.604 182.502 63.6917 203.072C-43.5098 222.437 -148.169 262.86 -233.223 332.115C-316.528 399.942 -376.497 493.408 -407.245 596.086C-438.166 699.35 -438.521 810.869 -403.844 913.241C-387.938 960.193 -365.015 1004.88 -335.241 1044.56C-304.229 1085.88 -266.01 1118.67 -223.838 1148.15C-177.06 1180.85 -127.491 1212.2 -95.117 1260.49C-63.9149 1307.04 -54.513 1364.07 -80.7789 1415.11C-131.255 1513.19 -248.981 1541.87 -335.513 1596.84C-356.158 1609.96 -375.498 1624.95 -392.255 1642.83C-392.8 1643.4 -391.925 1644.29 -391.38 1643.7C-318.129 1565.55 -204.184 1546.32 -125.906 1474.28C-91.7574 1442.84 -64.4349 1401.5 -63.6177 1353.71C-62.7675 1304.01 -89.636 1258.34 -123.595 1223.88C-164.224 1182.64 -216.046 1154.99 -261.074 1119.17C-300.985 1087.41 -334.416 1048.37 -360.525 1004.59C-416.746 910.303 -438.431 797.645 -425.397 688.974C-412.297 579.775 -366.022 473.853 -293.151 391.308C-217.259 305.337 -114.061 249.463 -4.26774 219.622C106.376 189.551 222.385 184.31 336.248 193.546C465.786 204.046 593.128 231.154 721.717 248.86C844.189 265.724 968.09 273.079 1090.43 251.105C1200.19 231.393 1307.64 189.832 1395.38 119.908C1416.35 103.192 1436.01 84.9252 1454.33 65.3372C1454.87 64.7594 1453.99 63.8845 1453.45 64.4705Z" fill="#EFF6FF"/>
<path d="M1452.59 52.8057C1372.99 136.779 1268.51 191.143 1157.38 220.529C1033.04 253.407 904.415 254.364 777.255 240.769C648.096 226.968 520.737 200.314 391.703 185.58C275.892 172.356 158.612 170.193 43.7004 192.249C-65.0858 213.125 -170.917 255.875 -255.724 328.408C-338.154 398.901 -396.29 495.38 -423.761 600.064C-451.199 704.624 -446.626 816.192 -407.541 917.219C-389.703 963.32 -365.014 1006.83 -333.886 1045.26C-299.886 1087.24 -258.357 1119.48 -213.799 1149.51C-165.717 1181.91 -115.942 1214.42 -83.8319 1264.02C-53.414 1311.02 -45.0027 1367.83 -70.8723 1418.81C-121.357 1518.3 -239.553 1548.55 -326.127 1605.96C-346.614 1619.55 -365.74 1635.03 -382.249 1653.31C-382.786 1653.89 -381.911 1654.78 -381.374 1654.18C-309.048 1574.11 -194.938 1552.68 -116.734 1479.7C-82.7505 1447.98 -55.3868 1406.6 -53.6946 1358.87C-51.9034 1308.18 -78.5902 1261.32 -112.813 1225.76C-152.584 1184.43 -203.72 1156.69 -249.64 1123.09C-293.249 1091.17 -330.592 1052.33 -360.193 1007.05C-420.302 915.114 -447.41 803.207 -438.562 693.926C-429.564 582.746 -385.51 473.992 -313.679 388.55C-238.629 299.277 -134.531 240.761 -23.2107 209.303C87.9116 177.903 204.837 171.662 319.583 180C450.5 189.509 579.311 215.948 709.196 233.662C832.915 250.534 958.103 258.706 1081.9 237.988C1193.79 219.266 1303.84 178.555 1393.74 108.144C1414.99 91.5028 1434.91 73.2686 1453.47 53.6889C1454.01 53.1028 1453.13 52.2279 1452.59 52.8057Z" fill="#EFF6FF"/>
<path d="M1451.72 41.1515C1371.03 125.216 1265.1 178.787 1152.95 207.323C1027.13 239.342 897.208 239.582 768.818 225.995C637.1 212.053 507.083 185.548 375.366 171.556C258.721 159.166 140.575 157.994 25.1351 181.222C-85.2195 203.427 -192.272 248.332 -276.881 323.894C-358.213 396.533 -414.533 495.29 -439.016 601.32C-463.309 706.532 -454.543 817.522 -412.239 917.006C-392.197 964.122 -364.965 1008.25 -331.212 1046.79C-294.389 1088.84 -249.831 1120.31 -203.358 1150.77C-154.194 1183 -104.337 1216.74 -72.5653 1267.53C-42.6097 1315.42 -35.4118 1372.56 -61.5704 1423.78C-112.393 1523.28 -229.343 1555.15 -315.479 1614.23C-336.289 1628.5 -355.638 1644.72 -372.246 1663.78C-372.766 1664.37 -371.899 1665.25 -371.371 1664.65C-299.598 1582.32 -184.645 1558.87 -106.475 1484.15C-72.392 1451.57 -45.1356 1409.35 -43.6333 1360.96C-42.0815 1310.9 -67.7117 1264.49 -100.977 1228.75C-140.731 1186.05 -192.636 1157.55 -240.206 1124.75C-286.324 1092.94 -326.681 1055.04 -359.245 1009.32C-422.813 920.076 -455.22 809.647 -451.051 700.242C-446.71 586.305 -404.595 473.664 -333.095 384.837C-259.332 293.195 -155.309 232.458 -43.4187 199.415C67.9348 166.529 185.603 159.1 301.042 166.406C434.27 174.842 565.459 200.827 697.573 218.591C824.024 235.595 951.969 244.386 1078.58 223.948C1191.54 205.714 1302.9 165.605 1393.92 94.9379C1414.76 78.7591 1434.32 61.0366 1452.59 42.0099C1453.15 41.4569 1452.28 40.5737 1451.72 41.1515Z" fill="#EFF6FF"/>
<path d="M1450.86 29.496C1368.61 114.105 1260.6 166.926 1146.81 194.545C1018.74 225.64 886.766 224.699 756.451 210.823C622.86 196.601 490.829 170.475 357.098 157.441C239.165 145.951 119.665 146.009 3.36698 170.97C-107.986 194.867 -215.535 242.24 -299.219 320.856C-378.446 395.287 -432.257 495.447 -453.612 601.823C-474.999 708.356 -461.899 819.561 -415.913 918.037C-394.014 964.931 -364.942 1008.55 -329.612 1046.39C-290.89 1087.89 -244.558 1118.67 -197.061 1149.12C-147.22 1181.07 -97.1483 1215.08 -64.576 1265.78C-33.3327 1314.4 -24.7562 1372.82 -50.6589 1425.73C-100.698 1527.95 -219.505 1561.64 -306.054 1623.4C-326.707 1638.14 -345.849 1654.84 -362.218 1674.27C-362.729 1674.87 -361.854 1675.75 -361.343 1675.14C-290.18 1590.67 -174.592 1565.08 -96.389 1488.85C-61.6622 1455 -34.2489 1411.21 -33.4812 1361.42C-32.6888 1310.18 -59.5242 1262.97 -93.8713 1226.67C-134.393 1183.85 -186.842 1155.14 -235.478 1122.82C-282.974 1091.24 -325.287 1054.1 -359.865 1008.58C-426.025 921.479 -462.774 812.61 -462.625 703.213C-462.477 589.152 -423.59 475.323 -354.722 384.482C-282.537 289.257 -178.332 225.293 -65.1703 190.146C46.827 155.353 165.791 146.636 282.444 152.942C416.431 160.19 548.512 185.193 681.294 202.948C810.221 220.192 940.709 230.122 1070.01 210.774C1185.1 193.546 1299.14 154.379 1392.34 83.1917C1413.44 67.0789 1433.25 49.406 1451.75 30.3711C1452.29 29.8015 1451.42 28.9265 1450.86 29.496Z" fill="#EFF6FF"/>
<path d="M1450.01 17.8394C1365.78 103.422 1254.95 155.574 1138.88 182.137C1009.1 211.854 875.689 209.707 744.038 195.65C609.184 181.246 475.725 155.715 340.598 143.605C221.84 132.957 101.514 133.997 -15.2955 160.147C-128.019 185.39 -236.706 234.966 -319.854 316.604C-397.967 393.296 -449.855 495.702 -467.998 603.481C-486.241 711.871 -468.237 823.86 -417.844 921.462C-393.889 967.86 -362.91 1010.7 -325.954 1047.62C-284.954 1088.58 -236.36 1118.61 -187.625 1149.34C-136.464 1181.6 -85.6653 1217.02 -53.2002 1269.35C-22.7411 1318.45 -15.0809 1376.7 -40.6699 1429.59C-90.7831 1533.18 -210.102 1568.46 -296.634 1632.61C-317.138 1647.8 -336.058 1664.95 -352.212 1684.76C-352.707 1685.37 -351.84 1686.25 -351.337 1685.63C-280.695 1598.98 -164.339 1571.32 -86.0945 1493.39C-51.5988 1459.03 -24.4745 1414.95 -23.3767 1365.03C-22.2375 1313.39 -48.685 1265.65 -82.9082 1228.67C-123.265 1185.06 -175.821 1155.73 -225.422 1124.13C-274.322 1092.97 -318.971 1057.48 -356.1 1012.69C-426.354 927.95 -468.584 820.154 -473.454 710.096C-478.605 593.46 -442.112 475.668 -373.765 381.22C-303.122 283.602 -199.124 217.318 -85.4589 180.511C27.3061 143.993 147.657 134.162 265.581 139.643C400.262 145.9 533.168 169.904 666.61 187.536C797.486 204.829 929.929 215.667 1061.34 197.507C1178.6 181.304 1295.27 143.094 1390.71 71.4113C1412.07 55.3727 1432.14 37.7328 1450.88 18.6979C1451.44 18.1449 1450.57 17.2699 1450.01 17.8394Z" fill="#EFF6FF"/>
<path d="M1449.15 6.18503C1368.15 87.5251 1262.64 138.043 1151.94 164.862C1034.73 193.257 913.453 195.808 793.73 186.315C652.52 175.122 513.076 148.93 372.246 134.345C251.152 121.806 128.713 118.744 8.46108 140.61C-100.754 160.47 -207.873 200.959 -294.892 271.213C-384.157 343.275 -446.8 445.045 -472.926 556.629C-498.647 666.481 -486.62 781.969 -439.668 884.491C-416.242 935.644 -384.627 983.091 -346.227 1024.23C-305.293 1068.09 -256.847 1101.17 -205.942 1132.34C-151.85 1165.46 -96.1897 1199 -57.2201 1250.28C-21.2304 1297.65 -3.08698 1357.26 -23.1042 1415.17C-42.2877 1470.68 -88.3232 1513.36 -135.589 1545.77C-183.696 1578.76 -236.789 1603.93 -283.518 1639.05C-305.277 1655.4 -325.302 1673.86 -342.199 1695.26C-342.686 1695.88 -341.819 1696.76 -341.324 1696.13C-268.395 1603.8 -144.71 1574.99 -66.5807 1488.2C-31.5733 1449.31 -7.92406 1399.64 -14.2635 1346.32C-20.6938 1292.25 -54.199 1244.87 -93.573 1209.03C-139.98 1166.8 -196.721 1138.23 -248.799 1103.93C-299.193 1070.73 -343.685 1030.22 -380.087 981.985C-449.896 889.509 -488.618 773.905 -485.043 657.846C-481.362 538.387 -434.823 420.587 -355.72 330.976C-278.854 243.907 -173.468 188.09 -62.4039 157.862C52.1027 126.693 171.975 121.038 289.94 128.583C431.967 137.671 572.121 163.698 713.389 179.712C836.117 193.62 960.133 199.39 1082.6 179.934C1192.24 162.517 1300.7 125.389 1390.44 58.6756C1411.56 42.9755 1431.45 25.6988 1450.02 7.0518C1450.58 6.49049 1449.71 5.61547 1449.15 6.18503Z" fill="#EFF6FF"/>
</g>
<defs>
<clipPath id="clip0_294_2349">
<rect width="1441" height="1257" fill="white"/>
</clipPath>
</defs>
</svg>
