<svg width="1440" height="1257" viewBox="0 0 1440 1257" fill="none" xmlns="http://www.w3.org/2000/svg">
<g clip-path="url(#clip0_288_2349)">
<path d="M1491.86 600.981C1457.34 691.384 1421.18 785.428 1350.76 854.609C1319.02 885.786 1280.97 911.202 1238.21 924.343C1188.5 939.622 1135.48 936.849 1085.41 924.822C989.014 901.668 905.693 845.81 814.687 808.838C733.33 775.786 646.427 764.42 559.639 779.674C474.947 794.557 396.125 833.131 332.714 891.209C265.588 952.689 215.904 1029.8 159.361 1100.45C102.627 1171.34 36.3022 1231.91 -42.8999 1276.92C-121.772 1321.74 -209.773 1350.8 -299.946 1361.04C-480.414 1381.54 -666.339 1323.1 -804.685 1205.86C-821.54 1191.57 -837.604 1176.4 -852.949 1160.5C-853.502 1159.93 -854.377 1160.81 -853.824 1161.38C-729.874 1289.78 -554.135 1365.62 -375.507 1366.43C-197.912 1367.23 -21.2896 1293.24 103.098 1166.56C167.805 1100.67 216.969 1021.83 276.699 951.732C337.84 879.975 411.297 823.3 502.121 794.92C590.692 767.243 686.742 766.929 775.073 795.614C871.42 826.899 955.847 886.174 1052.43 916.881C1098.2 931.434 1146.81 939.936 1194.87 934.537C1237.59 929.742 1277.65 913.257 1312.57 888.395C1386.69 835.599 1431.24 753.995 1465.4 671.714C1475.06 648.428 1484.06 624.877 1493.06 601.327C1493.34 600.56 1492.14 600.238 1491.86 600.981Z" fill="#1E293B"/>
<path d="M1491 589.318C1457.23 675.049 1421.57 763.537 1356.52 830.903C1327.16 861.304 1292.33 886.984 1252.94 902.766C1207.55 920.959 1158.07 923.766 1110.07 916.395C1014.72 901.759 931.207 851.473 844.683 812.206C766.703 776.819 685.726 755.39 599.574 761.028C518.63 766.319 438.908 792.676 371.716 838.323C298.234 888.247 244.258 960.036 191.784 1030.43C135.406 1106.04 77.459 1178.53 0.914853 1234.85C-69.5705 1286.72 -150.324 1325.03 -235.552 1345.19C-428.617 1390.86 -637.878 1339.3 -792.245 1216.03C-809.927 1201.9 -826.799 1186.84 -842.936 1170.98C-843.506 1170.42 -844.381 1171.29 -843.811 1171.86C-707.595 1305.8 -513.391 1377.61 -322.654 1360.59C-141.253 1344.39 20.9403 1247.37 134.473 1107.27C193.41 1034.55 243.589 954.167 311.508 889.089C376.768 826.561 458.306 784.661 547.347 768.647C638.122 752.32 728.386 765.073 813.292 799.94C901.417 836.119 983.054 888.445 1076.46 910.988C1120.95 921.727 1167.68 925.574 1212.79 916.197C1252.31 907.983 1288.91 889.485 1320.7 864.829C1390.32 810.836 1433.08 731.972 1466.86 652.283C1475.65 631.548 1483.95 610.598 1492.2 589.648C1492.49 588.905 1491.29 588.591 1491 589.318Z" fill="#1E293B"/>
<path d="M1490.15 577.663C1455.67 662.61 1418.67 750.017 1353.35 816.367C1323.61 846.579 1288.51 872.093 1248.98 887.859C1206.06 904.971 1159.49 908.809 1113.85 903.213C1016.9 891.326 931.389 841.807 843.866 802.235C764.937 766.543 683.481 743.529 596.19 748.011C516.121 752.122 436.91 776.572 369.281 819.809C294.38 867.702 238.893 938.204 186.642 1008.81C131.386 1083.47 76.6421 1157.48 4.03532 1216.46C-64.7 1272.3 -144.497 1315.27 -230.121 1338.47C-417.539 1389.26 -624.521 1342.17 -778.831 1226.77C-797.685 1212.67 -815.704 1197.52 -832.931 1181.47C-833.517 1180.93 -834.392 1181.8 -833.806 1182.35C-696.171 1310.59 -503.634 1377.29 -316.058 1356.1C-228.09 1346.16 -143.638 1315.48 -68.3073 1269.27C9.37599 1221.61 74.273 1158.51 129.958 1086.75C187.624 1012.44 238.67 931.79 308.701 868.057C374.927 807.791 457.522 768.664 545.903 754.532C636.587 740.029 725.901 754.301 810.353 789.061C898.842 825.472 981.626 876.93 1075.93 897.872C1119.83 907.621 1165.68 910.617 1209.9 901.108C1249.62 892.564 1286.52 873.777 1318.54 849.005C1387.29 795.813 1430.75 718.823 1465.17 640.521C1474.26 619.835 1482.83 598.935 1491.33 578.001C1491.64 577.258 1490.44 576.937 1490.15 577.663Z" fill="#1E293B"/>
<path d="M1489.28 566.006C1454.31 649.666 1416.33 735.29 1351.5 800.55C1321.52 830.729 1286.29 856.243 1246.73 872.265C1203.88 889.616 1157.32 894.148 1111.57 889.072C1014.73 878.333 928.747 830.564 841.299 791.371C762.584 756.091 681.648 731.996 594.629 734.985C514.8 737.725 435.449 760.359 366.937 801.599C291.259 847.155 234.443 915.486 182.514 985.658C127.556 1059.92 75.2715 1135.77 5.86754 1197.65C-59.6486 1256.06 -136.358 1303.15 -220.207 1329.95C-403.656 1388.58 -611.62 1345.55 -767.193 1235.97C-786.566 1222.32 -805.139 1207.61 -822.927 1191.95C-823.522 1191.43 -824.405 1192.3 -823.802 1192.83C-684.095 1315.83 -492.449 1377.56 -307.259 1351.13C-219.671 1338.64 -137.01 1303.81 -64.1556 1254.06C10.102 1203.35 70.9544 1138.35 124.625 1066.68C181.491 990.743 233.767 909.609 306.249 847.188C373.392 789.374 456.795 752.872 544.425 740.589C635.291 727.853 723.837 743.66 808.141 778.412C896.15 814.69 979.282 864.539 1073.4 884.185C1117.65 893.422 1163.75 895.807 1208.08 885.745C1247.67 876.764 1284.47 857.837 1316.51 833.139C1384.76 780.533 1428.91 704.864 1464.02 627.577C1473.22 607.328 1481.89 586.857 1490.47 566.345C1490.78 565.602 1489.58 565.28 1489.28 566.006Z" fill="#1E293B"/>
<path d="M1488.49 554.203C1453.14 636.409 1414.34 719.97 1350.32 784.173C1321.48 813.097 1287.9 837.712 1250.41 854.172C1207.63 872.951 1160.96 879.175 1114.55 875.345C1016.61 867.263 928.772 820.493 840.565 781.243C762.106 746.335 681.583 720.82 594.902 722.066C514.057 723.23 433.353 744.444 363.082 784.627C287.446 827.881 229.73 893.571 178.247 962.686C122.975 1036.89 72.4736 1114.54 5.71931 1179.32C-57.37 1240.53 -131.801 1291.9 -214.709 1322.16C-393.411 1387.39 -601.078 1347.82 -756.849 1244.18C-776.264 1231.26 -794.944 1217.32 -812.889 1202.44C-813.5 1201.93 -814.375 1202.8 -813.764 1203.31C-672.554 1320.44 -482.965 1377.47 -300.862 1346.29C-214.173 1331.45 -133.898 1292.83 -63.7672 1240.37C8.82307 1186.07 67.1 1118.04 120.094 1045.07C175.358 968.967 228.278 889.138 301.503 828.74C369.512 772.65 453.642 738.039 540.934 727.077C631.56 715.694 719.347 732.302 803.362 766.641C891.85 802.804 975.914 851.728 1070.66 870.384C1114.64 879.043 1160.36 880.949 1204.28 870.829C1242.67 861.981 1278.52 844.101 1310.08 820.683C1379.12 769.439 1424.93 694.983 1461.16 618.373C1471.08 597.398 1480.39 576.143 1489.56 554.83C1489.86 554.103 1488.8 553.468 1488.49 554.203Z" fill="#1E293B"/>
<path d="M1487.63 542.547C1451.61 624.036 1411.62 706.515 1347.26 769.761C1317.61 798.9 1283.25 823.573 1244.93 839.974C1202.38 858.184 1156.25 864.375 1110.22 860.883C1013.19 853.52 925.462 808.648 837.865 770.166C759.604 735.786 679.535 709.446 593.218 709.355C513.264 709.264 433.113 728.456 362.504 766.138C286.727 806.585 227.716 868.898 176.298 936.659C120.779 1009.83 72.3658 1088.34 9.38381 1155.63C-49.603 1218.65 -119.213 1273.83 -198.415 1309.14C-285.517 1347.96 -382.599 1356.83 -476.791 1347.39C-572.419 1337.8 -663.764 1304.03 -745.121 1253.29C-765.08 1240.85 -784.346 1227.38 -802.902 1212.93C-803.521 1212.44 -804.405 1213.32 -803.777 1213.8C-658.11 1327.22 -464.236 1380.6 -282.199 1338.56C-199.943 1319.56 -125.322 1276.98 -60.6805 1223.45C9.62318 1165.24 65.0358 1094.21 117.518 1020.13C172.006 943.205 226.692 863.995 302.411 806.164C371.27 753.574 455.268 722.191 541.239 713.243C631.279 703.866 717.787 721.902 801.025 755.828C888.498 791.487 972.298 838.48 1066.05 856.186C1110.36 864.556 1156.31 866.182 1200.45 855.93C1239.47 846.867 1275.93 828.633 1308.07 804.917C1376.32 754.548 1422.67 681.776 1459.45 606.586C1469.67 585.669 1479.27 564.455 1488.68 543.167C1489.01 542.448 1487.94 541.813 1487.63 542.547Z" fill="#1E293B"/>
<path d="M1486.76 530.884C1450.07 611.696 1408.9 693.011 1344.24 755.366C1279.66 817.646 1197.13 852.604 1106.75 846.463C1009.61 839.867 921.261 796.201 833.367 758.205C754.693 724.197 674.311 697.436 587.787 696.684C507.487 695.991 426.865 714.423 355.455 751.346C278.837 790.959 218.686 852.612 166.889 920.572C111.633 993.071 64.4341 1071.53 4.10186 1140.13C-53.2175 1205.31 -120.789 1264.07 -199.133 1302.49C-282.553 1343.41 -377.05 1353.88 -468.915 1347.39C-564.544 1340.64 -656.177 1308.12 -738.31 1259.37C-757.105 1248.22 -775.339 1236.17 -793.004 1223.31C-793.648 1222.84 -794.267 1223.91 -793.631 1224.38C-646.156 1331.81 -453.166 1381.43 -274.29 1332.37C-193.982 1310.35 -122.613 1263.82 -61.2987 1208.4C6.79284 1146.84 60.0097 1073.47 112.244 998.56C166.146 921.257 222.219 842.864 299.539 787.096C369.026 736.983 452.685 707.647 537.806 699.953C628.251 691.773 714.667 710.882 798.22 744.75C886.089 780.377 970.855 826.256 1065.24 842.633C1109.18 850.252 1154.63 851.168 1198.18 840.66C1236.67 831.365 1272.7 813.461 1304.66 790.249C1373.25 740.425 1420.66 668.413 1458.33 593.668C1468.66 573.18 1478.36 552.396 1487.83 531.503C1488.16 530.793 1487.09 530.158 1486.76 530.884Z" fill="#1E293B"/>
<path d="M1485.9 519.228C1448.3 599.899 1405.64 680.662 1339.93 742.249C1274.22 803.844 1191 837.984 1100.36 831.835C1003.41 825.256 914.847 782.638 826.788 745.303C748.354 712.045 668.302 685.408 582.331 684.046C502.303 682.775 421.813 700.183 350.057 735.818C273.133 774.012 211.95 833.964 159.889 901.371C104.658 972.888 58.6475 1051.12 1.26206 1121.02C-54.0019 1188.34 -118.833 1250.79 -195.451 1293.27C-275.545 1337.68 -367.938 1350.9 -458.539 1347.63C-553.689 1344.21 -645.191 1313.68 -728 1267.67C-746.828 1257.2 -765.162 1245.89 -782.991 1233.8C-783.652 1233.35 -784.271 1234.42 -783.619 1234.87C-707.586 1286.45 -621.277 1325.35 -530.494 1341.31C-444.713 1356.39 -349.794 1352.71 -266.622 1325.77C-98.2297 1271.22 9.82201 1117.54 105.591 978.732C158.816 901.577 215.797 824.472 293.753 770.462C363.924 721.843 447.6 693.819 532.49 686.927C622.588 679.605 708.583 698.987 791.921 732.252C879.667 767.276 964.564 811.95 1058.6 828.054C1102.79 835.615 1148.48 836.589 1192.31 826.288C1231.03 817.191 1267.38 799.609 1299.77 776.703C1369.12 727.663 1417.9 656.344 1456.64 581.913C1467.27 561.491 1477.24 540.739 1486.97 519.872C1487.31 519.137 1486.24 518.51 1485.9 519.228Z" fill="#1E293B"/>
<path d="M1485.04 507.573C1447.16 586.816 1403.85 665.73 1338.82 726.186C1272.62 787.74 1189.2 822.549 1098.16 817.464C1002.77 812.14 914.715 771.957 827.935 735.604C746.62 701.546 664.009 673.126 575 671.4C495.889 669.865 416.142 686.283 344.666 720.424C266.876 757.586 204.389 816.342 151.708 883.756C97.7322 952.822 53.4632 1028.8 0.26283 1098.42C-54.0024 1169.44 -117.331 1237.05 -193.751 1284.5C-269.388 1331.47 -358.248 1347.62 -446.323 1347.85C-541.638 1348.11 -633.618 1319.53 -717.691 1275.94C-736.552 1266.16 -754.984 1255.59 -772.971 1244.28C-773.648 1243.85 -774.267 1244.92 -773.598 1245.35C-696.46 1293.86 -609.994 1330.78 -519.434 1343.95C-475.932 1350.27 -431.787 1350.45 -388.055 1346.32C-344.999 1342.26 -301.762 1334.65 -261.166 1319.4C-184.341 1290.55 -119.238 1235.56 -63.784 1176.3C-1.53662 1109.79 47.4539 1033.79 98.764 958.938C150.809 883.03 207.881 808.161 284.969 755.993C355.934 707.968 440.055 680.489 525.308 674.042C616.298 667.158 702.97 687.092 787.224 720.308C875.547 755.126 961.444 799.081 1056.14 814.113C1100.47 821.154 1146.16 821.674 1189.96 811.042C1228.71 801.632 1265.15 784.033 1297.72 761.152C1366.73 712.648 1416.17 642.559 1455.54 569.028C1466.26 549.019 1476.32 528.672 1486.11 508.192C1486.46 507.482 1485.38 506.855 1485.04 507.573Z" fill="#1E293B"/>
<path d="M1484.19 495.917C1445.93 573.972 1401.89 651.292 1337.22 710.691C1270.88 771.634 1187.47 807.096 1096.64 803.092C1001.72 798.907 913.526 760.557 826.961 724.897C745.828 691.466 663.53 662.171 574.984 658.968C495.534 656.096 415.176 670.995 342.603 703.65C264.383 738.839 200.427 795.259 147.094 861.732C92.367 929.948 48.4529 1005.81 -2.46097 1076.75C-54.5387 1149.31 -114.392 1219.71 -187.527 1271.92C-259.251 1323.11 -344.569 1343.66 -431.679 1347.8C-527.415 1352.36 -620.196 1326.03 -705.944 1284.93C-725.342 1275.64 -744.352 1265.55 -762.966 1254.77C-763.659 1254.37 -764.278 1255.44 -763.593 1255.84C-684.672 1301.57 -597.381 1336.73 -506.226 1346.83C-462.89 1351.62 -419.132 1349.87 -375.994 1343.85C-333.574 1337.91 -291.212 1328.54 -251.995 1310.93C-177.003 1277.25 -115.176 1217.11 -62.3888 1155.45C-3.71564 1086.91 43.104 1010.17 94.0344 935.982C145.848 860.511 204.307 787.491 282.295 737.617C354.778 691.268 439.742 665.622 525.449 660.727C616.347 655.543 702.533 676.955 786.622 709.924C874.582 744.419 960.742 786.691 1055.19 800.36C1099.22 806.733 1144.37 806.567 1187.71 795.795C1226.55 786.138 1263.09 768.399 1295.86 745.558C1364.51 697.707 1414.53 628.757 1454.46 556.216C1465.26 536.603 1475.4 516.644 1485.26 496.544C1485.6 495.826 1484.53 495.199 1484.19 495.917Z" fill="#1E293B"/>
<path d="M1483.32 484.253C1444.18 562.201 1398.71 638.976 1333 697.633C1265.53 757.866 1181.42 792.518 1090.3 788.457C994.932 784.206 906.097 746.351 818.805 711.145C737.234 678.251 654.499 649.402 565.771 646.257C486.578 643.458 406.484 657.986 333.902 689.989C255.641 724.493 191.074 779.947 137.519 846.024C82.9812 913.307 39.5625 988.448 -9.21349 1059.8C-59.401 1133.22 -116.035 1205.33 -185.753 1261.28C-218.936 1287.91 -255.38 1309.28 -295.909 1322.68C-336.398 1336.06 -379.354 1344.04 -421.774 1347.76C-516.652 1356.08 -609.432 1331.37 -695.626 1293.16C-715.065 1284.55 -734.166 1275.21 -752.945 1265.25C-753.647 1264.87 -754.274 1265.94 -753.573 1266.32C-673.496 1308.78 -586.138 1342.14 -495.173 1349.38C-452.712 1352.77 -410.119 1349.43 -368.277 1341.78C-327.202 1334.28 -286.251 1323.6 -248.933 1304.49C-176.21 1267.24 -117.76 1203.79 -67.4161 1140.83C-11.3679 1070.73 34.098 993.541 84.6982 919.63C136.248 844.315 195.333 772.278 273.537 723.329C346.218 677.83 430.967 652.786 516.393 648.015C607.341 642.93 693.766 664.02 778.16 696.411C866.822 730.436 953.709 772.171 1048.62 785.741C1092.9 792.073 1138.27 791.974 1181.91 781.424C1220.99 771.973 1257.85 754.556 1291.06 732.038C1360.49 684.946 1411.84 616.681 1452.82 544.445C1463.9 524.899 1474.32 504.972 1484.41 484.889C1484.75 484.171 1483.68 483.543 1483.32 484.253Z" fill="#1E293B"/>
<path d="M1482.46 472.598C1442.52 550.273 1395.75 626.273 1329.26 684.178C1261.96 742.785 1178.6 776.992 1088.7 774.028C993.124 770.875 903.555 734.192 815.875 699.49C734.494 667.281 652.056 638.101 563.832 633.875C483.705 630.037 402.464 643.648 328.52 674.966C250.053 708.199 184.479 762.068 130.387 827.394C75.1148 894.148 31.63 969.347 -15.6024 1041.72C-64.1307 1116.07 -117.694 1189.78 -183.862 1249.56C-214.85 1277.56 -249.007 1301.38 -288.034 1316.76C-325.642 1331.59 -366.122 1341.3 -406.099 1346.95C-500.06 1360.24 -592.799 1338.46 -679.835 1303.61C-701.189 1295.06 -722.214 1285.72 -742.941 1275.73C-743.659 1275.38 -744.286 1276.46 -743.568 1276.8C-661.741 1316.21 -573.649 1348 -482.164 1352.05C-440.66 1353.89 -399.289 1348.8 -358.9 1339.35C-318.378 1329.86 -278.245 1317.28 -242.445 1295.61C-174.931 1254.76 -121.615 1190.86 -74.746 1128.54C-19.6471 1055.26 25.6125 975.571 77.4838 900.116C129.372 824.653 189.96 753.747 269.393 706.284C342.759 662.452 427.574 638.852 512.769 635.031C604.832 630.903 692.033 653.323 777.459 685.837C864.56 718.987 950.374 758.419 1043.52 771.321C1088.7 777.578 1135.01 777.239 1179.45 766.228C1218.01 756.677 1254.48 739.657 1287.48 717.675C1357.4 671.095 1409.82 603.573 1451.72 531.659C1462.89 512.492 1473.37 492.946 1483.52 473.217C1483.9 472.516 1482.82 471.888 1482.46 472.598Z" fill="#1E293B"/>
<path d="M1481.6 460.943C1441.33 537.487 1393.92 611.934 1327.76 668.816C1260.04 727.044 1176.47 761.581 1086.51 759.517C990.459 757.313 899.94 721.464 811.591 687.207C728.477 654.974 644.446 625.414 554.595 621.163C473.602 617.333 391.362 631.077 316.626 662.741C240.057 695.181 175.408 747.044 122.026 810.381C66.5057 876.252 23.1612 951.005 -22.4533 1023.77C-70.1479 1099.84 -121.466 1175.86 -185.034 1239.72C-212.736 1267.55 -243.262 1292.52 -278.847 1309.59C-315.381 1327.11 -355.928 1339.06 -395.69 1346.56C-488.759 1364.13 -581.862 1343.76 -669.467 1311.68C-690.871 1303.84 -712.003 1295.28 -732.911 1286.23C-733.638 1285.92 -734.265 1286.98 -733.539 1287.3C-651.34 1322.9 -563.975 1352.98 -473.546 1354.54C-431.324 1355.28 -389.722 1348.46 -349.241 1336.67C-310.041 1325.26 -271.633 1310.8 -238.07 1287.09C-173.552 1241.52 -123.596 1175.02 -78.6748 1111.06C-26.4567 1036.71 17.5151 957.056 69.1224 882.319C120.664 807.674 181.615 738.435 260.66 692.168C334.711 648.832 419.981 625.769 505.522 622.277C598.468 618.48 686.519 641.362 772.919 673.736C860.648 706.614 947.411 745.294 1041.17 757.28C1085.28 762.918 1130.33 762.34 1173.7 751.898C1213.67 742.273 1251.48 724.84 1285.73 702.222C1355.33 656.261 1408.26 589.903 1450.69 518.947C1461.93 500.152 1472.48 480.96 1482.68 461.578C1483.04 460.86 1481.97 460.233 1481.6 460.943Z" fill="#1E293B"/>
<path d="M1480.74 449.288C1439.31 526.286 1390.1 600.643 1322.22 656.955C1252.61 714.696 1167.57 747.747 1076.61 744.808C981.156 741.729 891.058 706.656 802.883 673.2C719.504 641.561 635.192 612.612 545.342 608.468C464.58 604.737 382.637 618.167 307.893 649.196C230.036 681.521 164.066 733.698 109.883 797.877C54.289 863.731 11.0848 938.657 -33.4731 1012.1C-79.88 1088.59 -128.681 1165.52 -188.881 1232.09C-214.569 1260.49 -242.849 1286.76 -276.651 1305.25C-311.609 1324.37 -351.041 1338.27 -389.837 1347.17C-481.611 1368.21 -575.415 1347.89 -662.946 1318.46C-683.161 1311.67 -703.17 1304.32 -723.072 1296.66C-723.815 1296.37 -724.137 1297.56 -723.402 1297.85C-638.389 1330.57 -548.984 1359.63 -456.831 1357C-416.351 1355.85 -376.778 1347.08 -338.742 1333.4C-302.372 1320.32 -267.282 1304.53 -236.963 1280.15C-175.451 1230.68 -128.565 1161.94 -85.4352 1096.72C-34.9919 1020.45 8.45164 939.697 60.645 864.573C112.269 790.282 174.07 722.282 253.429 677.171C328.314 634.602 414.12 612.34 500.016 609.434C592.5 606.314 680.221 629.179 766.382 660.843C853.277 692.78 939.297 730.107 1031.84 742.291C1077.1 748.25 1123.29 747.953 1167.89 737.544C1207.5 728.291 1245.16 711.534 1279.42 689.718C1350.54 644.433 1405.26 578.397 1449.04 507.185C1460.56 488.448 1471.37 469.289 1481.79 449.924C1482.19 449.206 1481.12 448.587 1480.74 449.288Z" fill="#1E293B"/>
<path d="M1479.88 437.625C1437.92 513.872 1387.86 587.023 1319.85 642.436C1250 699.351 1165.02 732.402 1074.39 730.297C978.439 728.06 887.466 693.845 798.623 660.835C714.691 629.65 629.876 600.519 539.695 595.922C458.008 591.753 374.993 604.746 299.159 635.667C220.625 667.686 153.763 719.516 98.9782 783.902C43.483 849.129 0.526552 923.651 -42.6693 997.248C-88.127 1074.69 -134.666 1152.88 -191.474 1222.69C-214.793 1251.35 -240.299 1278.83 -271.493 1299.04C-303.24 1319.62 -340.071 1335.4 -376.317 1345.97C-467.876 1372.66 -563.472 1353.56 -652.612 1326.63C-672.877 1320.5 -692.993 1313.89 -713.052 1307.12C-713.811 1306.87 -714.133 1308.06 -713.382 1308.32C-626.71 1337.53 -536.504 1365.45 -443.938 1359.27C-404.919 1356.67 -367.163 1346.41 -331.289 1331C-296.025 1315.86 -262.652 1297.86 -234.463 1271.45C-177.045 1217.68 -133.535 1148.11 -92.2212 1081.85C-44.6092 1005.49 -2.40379 925.657 48.865 851.622C100.984 776.365 163.991 708.067 244.679 663.113C320.216 621.024 406.475 599.256 492.71 596.665C585.367 593.874 673.418 616.739 759.942 647.933C848.125 679.73 935.565 716.685 1029.37 728.175C1117.13 738.923 1202.4 721.762 1277.4 674.505C1348.34 629.798 1403.65 564.868 1448.01 494.474C1459.59 476.091 1470.47 457.279 1480.94 438.244C1481.34 437.559 1480.26 436.931 1479.88 437.625Z" fill="#1E293B"/>
<path d="M1479.02 425.968C1436.76 501.126 1386.16 572.791 1318.46 627.222C1248.2 683.716 1162.94 717.122 1072.22 715.768C974.817 714.315 882.209 680.364 791.798 647.487C707.56 616.854 622.464 588.054 532.226 583.299C450.762 579.007 368.027 591.455 292.077 621.501C213.428 652.621 145.799 703.328 90.5432 767.086C33.9667 832.371 -9.4685 907.586 -52.0288 982.381C-95.6622 1059.07 -139.238 1136.48 -190.845 1208.18C-211.077 1236.3 -232.819 1264.35 -259.522 1286.68C-290.105 1312.25 -328.481 1332.24 -365.973 1345.44C-455.906 1377.1 -552.88 1358.81 -642.276 1334.8C-662.607 1329.34 -682.814 1323.46 -703.029 1317.6C-703.797 1317.38 -704.127 1318.58 -703.36 1318.8C-615.647 1344.19 -525.26 1370.91 -432.925 1361.61C-394.013 1357.69 -356.852 1345.65 -322.158 1327.75C-288.76 1310.51 -258.26 1290.39 -232.704 1262.55C-179.528 1204.62 -139.064 1134.31 -99.3437 1066.92C-53.4073 988.976 -11.5404 908.288 40.3393 834.006C92.6316 759.129 156.538 692.11 237.507 648.263C313.324 607.213 399.411 586.213 485.406 583.918C578.22 581.442 666.56 604.266 753.422 634.973C842.299 666.389 930.531 702.726 1024.91 713.787C1112.99 724.113 1198.6 706.87 1274.2 660.091C1345.54 615.954 1401.84 551.8 1446.99 481.81C1458.63 463.766 1469.58 445.292 1480.09 426.579C1480.48 425.902 1479.42 425.275 1479.02 425.968Z" fill="#1E293B"/>
<path d="M1478.16 414.312C1435.02 489.428 1383.06 560.516 1314.33 614.245C1241.91 670.871 1154.66 703.303 1062.26 701.082C964.993 698.738 872.451 665.216 781.817 632.999C696.746 602.754 610.775 574.623 519.876 570.43C438.123 566.657 355.182 579.402 279.051 609.721C201.483 640.618 134.407 690.459 79.6049 753.209C22.7147 818.338 -20.77 893.726 -62.4223 969.115C-105.626 1047.31 -147.691 1126.56 -196.476 1201.49C-215.544 1230.77 -235.718 1260.38 -261.29 1284.45C-289.125 1310.65 -324.413 1332.36 -359.841 1346.56C-447.215 1381.58 -545.089 1363.53 -633.519 1342.62C-653.388 1337.93 -673.182 1332.92 -693.026 1328.11C-693.802 1327.92 -694.132 1329.12 -693.356 1329.31C-605.38 1350.61 -515.711 1375.9 -424.35 1364.29C-351.512 1355.04 -280.647 1314.23 -234.62 1257.14C-184.697 1195.21 -146.585 1123.14 -107.938 1053.95C-64.1062 975.495 -22.9822 895.022 28.4764 821.152C80.5047 746.466 144.477 679.951 225.14 636.276C300.611 595.416 386.202 574.268 471.777 571.387C565.565 568.234 655.085 590.381 743.153 620.741C833.127 651.753 922.35 687.891 1017.58 699.109C1106.92 709.634 1193.94 692.564 1271.01 645.752C1342.22 602.507 1399.17 539.731 1444.94 470.765C1457.01 452.563 1468.35 433.892 1479.22 414.956C1479.63 414.246 1478.56 413.619 1478.16 414.312Z" fill="#1E293B"/>
<path d="M1477.3 402.658C1432.51 479.037 1378.05 550.793 1306.52 604.052C1233.73 658.243 1147.12 688.817 1055.98 686.473C957.985 683.947 864.685 650.822 773.101 618.976C687.204 589.111 600.391 561.475 508.841 557.628C426.716 554.186 343.461 567.088 267 597.555C188.285 628.922 120.3 679.655 64.9704 743.594C8.76538 808.541 -34.1829 883.616 -74.6052 959.012C-116.489 1037.15 -156.416 1116.48 -201.106 1193.07C-218.267 1222.48 -236.014 1252.5 -258.64 1278.12C-282.693 1305.36 -314.036 1329.12 -346.79 1344.86C-432.257 1385.94 -532.211 1369.32 -621.302 1351.23C-641.881 1347.05 -662.401 1342.61 -683.013 1338.59C-683.789 1338.44 -684.127 1339.63 -683.343 1339.79C-595.705 1356.89 -507.15 1380.71 -417.242 1367.31C-343.777 1356.35 -278.83 1312.1 -236.518 1251.68C-190.631 1186.18 -154.955 1113.05 -117.578 1042.55C-75.7527 963.652 -35.3633 883.385 15.5423 809.804C67.2651 735.043 131.279 668.618 211.703 624.82C288.42 583.044 375.555 561.59 462.64 558.668C555.801 555.548 645.065 576.96 732.802 606.445C823.486 636.921 913.337 672.729 1009 684.211C1098.63 694.967 1186.19 679.069 1264.38 633.421C1337.26 590.869 1396.13 528.308 1443.32 458.987C1455.67 440.843 1467.26 422.205 1478.36 403.277C1478.77 402.592 1477.71 401.965 1477.3 402.658Z" fill="#1E293B"/>
<path d="M1476.44 391.003C1431.06 466.853 1375.66 537.562 1303.78 590.003C1229.73 644.004 1142.13 674.174 1050.15 671.871C952.24 669.419 858.708 637.045 766.951 605.835C680.526 576.44 593.218 548.986 501.353 544.991C418.874 541.4 335.231 553.98 258.233 584.101C179.485 614.906 110.915 664.838 55.2626 728.332C-1.84217 793.477 -45.2279 869.236 -85.1137 945.739C-126.18 1024.52 -164.431 1104.73 -205.374 1183.57C-237.864 1246.13 -273.3 1309.12 -337.108 1344.54C-419.942 1390.52 -522.141 1374.58 -610.96 1359.4C-631.621 1355.87 -652.257 1352.15 -672.992 1349.07C-673.768 1348.96 -674.107 1350.15 -673.323 1350.27C-584.298 1363.48 -494.653 1386.61 -404.423 1369.54C-331.049 1355.66 -274.662 1307.3 -237.211 1244.26C-196.104 1175.08 -162.574 1101.21 -126.436 1029.4C-86.2694 949.594 -46.2845 868.972 4.74498 795.408C56.8227 720.333 121.753 654.248 202.911 610.887C279.744 569.845 366.664 548.862 453.502 545.981C548.198 542.836 638.948 564.645 728.278 594.138C819.35 624.201 909.795 659.167 1005.76 669.989C1095.32 680.084 1182.81 664.013 1261.22 619.1C1333.99 577.414 1393.47 516.224 1441.27 447.901C1454.07 429.617 1466.05 410.789 1477.52 391.638C1477.92 390.937 1476.85 390.318 1476.44 391.003Z" fill="#1E293B"/>
<path d="M1475.58 379.339C1429.29 455.157 1372.54 525.287 1299.61 576.994C1223.91 630.656 1134.89 660.034 1041.83 657.186C943.218 654.173 849.017 621.973 756.303 591.175C669.68 562.4 582.132 535.812 490.292 532.188C406.864 528.903 322.288 541.829 244.522 572.561C164.833 604.06 95.6108 655.057 39.6617 719.78C-16.3865 784.62 -59.021 859.794 -97.5283 935.991C-137.761 1015.59 -174.444 1096.86 -211.746 1177.84C-240.843 1241.01 -269.784 1309.87 -332.204 1347.12C-412.769 1395.18 -516.181 1379.33 -604.1 1367.08C-623.762 1364.34 -643.416 1361.54 -663.169 1359.54C-663.962 1359.46 -663.954 1360.69 -663.169 1360.78C-573.063 1369.95 -482.461 1392.42 -392.182 1371.76C-355.68 1363.4 -321.886 1346.66 -295.307 1319.94C-271.195 1295.7 -253.514 1267.38 -238.351 1236.88C-162.937 1085.23 -104.38 923.097 -7.48809 783.018C45.217 706.821 111.468 640.273 194.087 596.97C271.019 556.655 357.741 536.101 444.331 533.27C538.458 530.191 628.845 551.215 717.903 579.866C809.057 609.195 899.477 643.55 995.172 654.875C1086.49 665.689 1175.9 650.525 1256.5 605.637C1330.38 564.496 1391.33 503.685 1440.25 435.264C1453.09 417.302 1465.13 398.795 1476.64 379.95C1477.06 379.282 1476 378.662 1475.58 379.339Z" fill="#1E293B"/>
<path d="M1474.72 367.684C1427.93 442.841 1370.43 511.816 1297.34 562.688C1220.92 615.864 1131.37 645.118 1038 642.65C938.752 640.033 843.676 608.402 750.144 578.009C662.432 549.506 573.811 523.009 481.022 519.468C397.825 516.298 313.472 528.927 235.739 559.114C155.959 590.102 86.2335 640.289 29.8881 704.584C-27.0845 769.596 -70.1566 845.496 -108.177 922.751C-146.973 1001.58 -181.659 1082.34 -214.602 1163.78C-240.984 1229 -262.041 1307.16 -323.884 1348.11C-360.27 1372.2 -405.323 1380.66 -448.205 1383.45C-495.595 1386.53 -543.116 1380.83 -590.175 1375.75C-611.133 1373.49 -632.1 1371.2 -653.157 1370.03C-653.949 1369.99 -653.949 1371.23 -653.157 1371.27C-562.555 1376.3 -471.5 1397.92 -381.649 1374.34C-345.494 1364.85 -312.055 1346.77 -287.952 1317.68C-266.424 1291.69 -252.813 1261.33 -240.15 1230.36C-208.725 1153.49 -178.175 1076.34 -143.704 1000.76C-106.997 920.266 -68.027 839.958 -17.3195 767.194C34.8903 692.276 100.778 627.28 182.184 584.712C259.983 544.033 347.654 523.446 435.168 520.582C530.112 517.478 621.448 538.519 711.455 566.89C803.658 595.954 895.226 629.831 991.903 640.644C1083.6 650.904 1173.44 635.312 1254.52 590.737C1328.33 550.158 1389.78 490.387 1439.23 422.708C1452.13 405.068 1464.22 386.867 1475.77 368.319C1476.21 367.634 1475.14 367.007 1474.72 367.684Z" fill="#1E293B"/>
<path d="M1473.86 356.028C1425.87 431.665 1366.54 500.474 1291.75 550.695C1214.59 602.492 1124.86 630.582 1031.72 628.04C838.163 622.757 665.288 513.83 471.745 506.748C387.598 503.669 302.304 516.389 223.688 546.947C143.396 578.158 73.1092 628.675 16.508 693.514C-40.3904 758.7 -83.2809 834.881 -120.41 912.655C-158.513 992.493 -191.853 1074.6 -221.173 1158.05C-231.763 1188.2 -241.562 1218.58 -251.516 1248.94C-264.055 1287.16 -280.853 1323.48 -313.945 1348.12C-348.788 1374.07 -393.643 1383.81 -436.137 1387.81C-483.955 1392.31 -532.121 1387.58 -579.84 1383.91C-600.906 1382.28 -621.996 1380.72 -643.136 1380.51C-643.936 1380.5 -643.936 1381.74 -643.136 1381.75C-552.146 1382.63 -460.48 1403.47 -371.067 1376.96C-336.01 1366.55 -303.487 1347.73 -281.992 1317.45C-262.082 1289.41 -252.639 1256.24 -242.131 1223.95C-216.682 1145.78 -188.122 1068.62 -155.541 993.12C-120.36 911.623 -81.8034 830.638 -31.3023 757.371C21.1552 681.256 87.8682 615.443 170.306 572.445C248.972 531.412 337.592 510.759 426.031 507.887C520.397 504.816 611.428 525.122 701.121 552.668C794.042 581.203 886.237 614.725 983.385 625.794C1074.93 636.228 1164.86 621.948 1246.71 578.991C1322.7 539.114 1386.48 479.343 1437.66 410.946C1450.82 393.364 1463.16 375.195 1474.92 356.656C1475.35 355.979 1474.28 355.352 1473.86 356.028Z" fill="#1E293B"/>
<path d="M1473 344.373C1424.19 419.86 1363.66 487.944 1288.03 537.405C1209.87 588.525 1119.44 616.004 1025.86 613.437C832.591 608.146 659.065 502.009 465.967 494.151C380.888 490.684 294.578 503.107 214.889 533.517C133.351 564.62 61.7432 615.426 4.33305 681.075C-52.7057 746.285 -95.5714 822.706 -131.891 900.983C-169.466 981.96 -201.584 1065.64 -227.256 1151.15C-236.641 1182.42 -244.953 1213.94 -252.11 1245.8C-260.604 1283.62 -271.508 1319.75 -301.679 1346.14C-335.803 1375.99 -382.886 1387.35 -426.883 1392.47C-474.726 1398.03 -523.131 1394.2 -571.065 1391.99C-591.734 1391.05 -612.428 1390.26 -633.114 1391C-633.906 1391.03 -633.915 1392.27 -633.114 1392.24C-541.695 1388.94 -449.112 1409.12 -360.03 1379.45C-325.872 1368.07 -294.101 1348.22 -275.248 1316.72C-257.748 1287.48 -252.944 1253.13 -244.995 1220.56C-225.415 1140.36 -198.373 1061.8 -167.254 985.402C-132.989 901.289 -94.003 817.984 -42.1977 743.091C10.6643 666.67 78.3348 601.179 161.491 558.602C240.775 518.007 329.833 497.791 418.619 495.15C513.851 492.319 605.807 512.881 696.466 540.203C789.816 568.334 882.597 601.055 980.083 611.547C1071.43 621.378 1161.21 607.048 1243.19 564.958C1319.25 525.914 1383.73 467.382 1435.58 399.843C1449.18 382.121 1461.93 363.779 1474.06 345.017C1474.5 344.323 1473.43 343.704 1473 344.373Z" fill="#1E293B"/>
<path d="M1472.13 332.709C1422.74 407.71 1361.35 474.794 1285.36 523.463C1205.84 574.393 1114.17 601.501 1019.58 598.818C824.006 593.271 647.616 487.58 451.934 481.249C367.135 478.509 281.255 491.237 201.905 521.688C120.796 552.816 49.3693 603.325 -7.85926 668.627C-65.7977 734.737 -109.018 812.561 -144.843 892.448C-181.411 974.011 -211.977 1058.69 -233.662 1145.45C-241.223 1175.73 -247.711 1206.32 -251.681 1237.28C-256.857 1277.6 -261.388 1316.05 -291.856 1345.99C-323.33 1376.91 -368.829 1389.71 -411.34 1396.26C-460.735 1403.87 -510.989 1400.96 -560.747 1400.18C-581.54 1399.86 -602.366 1399.78 -623.101 1401.47C-623.894 1401.54 -623.894 1402.78 -623.101 1402.71C-532.013 1395.28 -439.257 1414.44 -351 1382.64C-316.347 1370.16 -284.022 1348.68 -267.555 1314.64C-252.474 1283.46 -252.664 1247.63 -247.017 1214.11C-233.414 1133.35 -208.18 1054.09 -178.926 977.767C-146.098 892.118 -107.26 807.526 -55.1494 731.741C-2.32051 654.908 65.7132 589.268 149.125 546.542C228.088 506.103 316.667 485.756 405.081 482.553C500.611 479.095 593.127 498.732 684.34 525.436C779.019 553.154 872.989 585.867 971.581 596.672C1064.01 606.8 1155.02 593.131 1238.51 551.495C1316.72 512.492 1383.33 453.374 1436.7 384.589C1449.57 367.997 1461.68 350.853 1473.22 333.32C1473.65 332.668 1472.57 332.049 1472.13 332.709Z" fill="#1E293B"/>
<path d="M1471.28 321.054C1420.75 396.402 1357.66 463.172 1280.18 511.148C1199.98 560.807 1108.16 586.916 1013.72 584.225C816.685 578.604 638.172 474.11 440.922 468.472C354.621 466.004 267.231 479.252 186.675 510.743C105.756 542.374 34.5279 593.288 -22.387 658.879C-80.4163 725.765 -123.48 804.505 -158.397 885.49C-194.023 968.109 -223.087 1054.34 -240.521 1142.71C-246.786 1174.47 -251.491 1206.6 -252.234 1239.01C-253.167 1279.75 -254.537 1317.35 -284.542 1348.55C-314.622 1379.82 -359.576 1393.38 -401.154 1400.79C-449.633 1409.42 -499.193 1407.72 -548.216 1408.36C-569.876 1408.64 -591.569 1409.23 -613.08 1411.95C-613.856 1412.05 -613.873 1413.29 -613.08 1413.19C-521.885 1401.63 -428.171 1420.02 -340.335 1385.35C-306.458 1371.98 -275.074 1349.66 -260.786 1314.95C-247.645 1283.02 -252.482 1247.59 -249.733 1214.01C-243.03 1132.26 -219.282 1050.97 -191.91 974.044C-160.79 886.613 -122.242 800.452 -70.1147 723.388C-17.5664 645.696 50.5334 579.28 134.201 535.845C213.742 494.548 303.155 473.672 392.444 469.999C488.609 466.053 581.967 485.063 674.014 511.288C769.799 538.586 864.8 571.067 964.3 581.971C1057.85 592.223 1150.13 578.909 1234.99 537.504C1313.28 499.302 1380.59 441.471 1434.63 373.512C1447.94 356.772 1460.45 339.429 1472.37 321.673C1472.79 321.013 1471.72 320.394 1471.28 321.054Z" fill="#1E293B"/>
<path d="M1470.42 309.398C1419.3 384.275 1355.37 450.072 1277.53 497.255C1194.74 547.442 1100.32 572.998 1003.47 569.482C900.848 565.759 801.975 535.589 704.027 507.342C612.674 480.993 520.347 457.278 424.735 455.594C338.641 454.075 251.63 467.91 171.47 499.814C89.0489 532.617 16.8384 585.413 -40.3324 653.174C-96.7355 720.028 -138.586 798.157 -171.918 878.688C-206.9 963.214 -234.652 1052.1 -247.397 1142.88C-251.978 1175.52 -254.215 1208.22 -251.434 1241.12C-249.849 1259.83 -247.604 1278.57 -250.509 1297.27C-253.893 1319.1 -264.484 1338.56 -279.862 1354.31C-309.843 1385.04 -355.185 1398.69 -396.251 1406.39C-444.581 1415.46 -494.149 1414.47 -543.082 1416.73C-563.215 1417.67 -583.364 1419.06 -603.249 1422.48C-604.033 1422.61 -603.703 1423.81 -602.919 1423.68C-555.538 1415.53 -506.853 1417.44 -459.002 1414.66C-414.898 1412.1 -370.554 1405.62 -329.67 1388.09C-296.198 1373.74 -265.334 1350.1 -253.365 1314.37C-241.908 1280.14 -251.863 1243.81 -251.59 1208.73C-250.955 1126.76 -228.981 1043.7 -203.334 966.442C-173.99 878.044 -135.936 791.14 -84.0401 713.531C-31.9376 635.609 35.9393 568.995 119.293 525.147C199.412 482.999 289.65 461.587 379.814 457.46C477.317 452.994 572.12 471.715 665.635 497.725C762.081 524.544 857.759 556.53 957.754 567.369C1051.76 577.563 1144.55 564.702 1230.3 524.107C1309.72 486.516 1378.48 429.105 1433.65 361.072C1447 344.612 1459.55 327.542 1471.5 310.042C1471.94 309.365 1470.86 308.738 1470.42 309.398Z" fill="#1E293B"/>
<path d="M1469.56 297.743C1416.86 373.594 1350.57 439.514 1270.39 486.053C1185.57 535.275 1089.72 559.147 991.738 554.64C888.309 549.886 788.693 519.6 689.672 491.815C597.675 466.003 504.655 443.468 408.573 442.792C321.562 442.172 233.767 456.973 153.136 490.172C70.5251 524.189 -1.50374 578.446 -58.138 647.471C-113.972 715.521 -155.137 794.731 -187.115 876.426C-220.108 960.73 -245.474 1049.82 -253.324 1140.29C-256.189 1173.32 -256.065 1206.1 -250.089 1238.77C-246.655 1257.55 -242.47 1276.28 -243.914 1295.48C-245.689 1319.11 -256.205 1340.6 -272.458 1357.71C-301.861 1388.66 -346.98 1403.08 -387.675 1411.46C-435.815 1421.37 -485.342 1421.37 -534.176 1425.14C-553.995 1426.66 -573.79 1428.75 -593.237 1432.96C-594.013 1433.13 -593.683 1434.32 -592.907 1434.16C-546.649 1424.13 -498.55 1424.71 -451.54 1421.03C-407.709 1417.59 -363.761 1410.66 -323.248 1392.78C-288.943 1377.64 -256.824 1352.98 -246.151 1315.38C-235.949 1279.43 -250.27 1243.58 -253.126 1207.69C-255.941 1172.22 -252.614 1136.19 -247.488 1101.08C-240.736 1054.89 -229.948 1009.29 -216.451 964.626C-189.682 876.022 -152.974 789.027 -102.77 711.055C-51.0638 630.755 17.0112 561.756 101.414 516.042C181.788 472.516 272.769 450.122 363.734 445.103C461.022 439.729 555.99 456.973 649.613 482.083C746.579 508.085 842.513 539.865 942.607 551.776C1038.7 563.217 1133.77 552.114 1222.35 512.154C1303.93 475.356 1375.14 418.044 1432.08 349.317C1445.67 332.907 1458.45 315.87 1470.61 298.37C1471.08 297.71 1470 297.091 1469.56 297.743Z" fill="#1E293B"/>
<path d="M1468.69 286.08C1415.17 361.807 1347.69 427.001 1266.69 472.781C1180.74 521.358 1084.03 544.595 985.407 540.014C880.657 535.143 779.655 504.891 679.156 477.42C586.59 452.119 492.967 430.261 396.497 430.055C309.197 429.865 221.237 444.872 140.376 478.278C57.1866 512.642 -15.3458 567.468 -72.1369 637.219C-127.228 704.889 -167.79 783.629 -198.58 864.978C-230.954 950.486 -254.867 1041.5 -258.681 1133.22C-260.109 1167.56 -257.987 1201.33 -248.841 1234.56C-243.682 1253.3 -237.549 1271.9 -237.186 1291.53C-236.74 1315.66 -245.473 1338.24 -260.885 1356.71C-288.735 1390.08 -334.565 1406.23 -375.581 1415.83C-424.167 1427.21 -474.446 1428.2 -523.882 1433.47C-543.85 1435.6 -563.776 1438.37 -583.224 1443.45C-583.991 1443.65 -583.669 1444.85 -582.893 1444.65C-535.422 1432.25 -485.416 1431.93 -436.855 1426.8C-393.659 1422.25 -350.364 1414 -310.981 1394.96C-277.064 1378.56 -246.076 1352.16 -237.978 1313.66C-230.062 1276.01 -248.503 1240.85 -254.322 1204.38C-259.894 1169.48 -258.433 1133.41 -254.933 1098.39C-250.088 1049.93 -240.158 1001.97 -227.017 955.1C-201.997 865.836 -165.809 778.297 -115.82 700.027C-64.1631 619.15 4.37422 549.77 89.2224 503.933C169.853 460.374 260.925 437.856 352.112 432.548C449.73 426.861 545.227 443.518 639.386 468.067C737.639 493.681 834.82 525.238 936.053 537.166C1033.02 548.59 1129.2 537.777 1218.89 498.18C1300.57 462.124 1372.37 406.134 1430.02 338.215C1444.06 321.673 1457.25 304.446 1469.77 286.732C1470.23 286.055 1469.15 285.436 1468.69 286.08Z" fill="#1E293B"/>
<path d="M1467.83 274.424C1413.39 350.176 1344.55 414.751 1262.54 459.779C1174.51 508.11 1075.97 530.438 975.733 525.221C870.323 519.732 768.619 489.644 667.212 462.685C573.226 437.699 478.184 416.633 380.425 417.359C293.324 418.003 205.636 433.588 125.146 467.415C41.1317 502.719 -31.8713 558.842 -88.6129 630.078C-143.349 698.797 -183.333 778.594 -212.81 861.073C-243.633 947.316 -265.342 1039.86 -264.03 1131.93C-263.51 1168.17 -257.996 1202.36 -245.284 1236.38C-238.35 1254.95 -231.168 1273.57 -230.219 1293.58C-229.154 1316.09 -236.261 1337.68 -249.584 1355.76C-276.172 1391.82 -323.338 1409.84 -365.205 1420.59C-413.032 1432.86 -462.708 1435.03 -511.484 1441.51C-532.31 1444.29 -553.086 1447.78 -573.211 1453.92C-573.97 1454.15 -573.649 1455.35 -572.881 1455.12C-526.565 1440.97 -477.153 1439.28 -429.368 1433.29C-385.404 1427.78 -341.383 1418.8 -301.604 1398.52C-267.34 1381.04 -236.377 1353.22 -230.038 1313.43C-223.797 1274.24 -245.507 1239.99 -254.686 1203.26C-263.279 1168.91 -263.914 1132.58 -262.098 1097.4C-259.589 1048.76 -251.359 1000.45 -239.563 953.251C-216.806 862.146 -181.204 772.807 -131.429 693.019C-80.6555 611.638 -12.7703 541.582 71.4918 494.812C151.891 450.188 243.021 426.712 334.439 420.364C433.073 413.513 529.832 429.064 625.263 453.077C725.307 478.245 824.13 509.992 926.932 522.233C1025.24 533.938 1122.77 523.859 1214.18 484.725C1296.45 449.511 1369.32 394.478 1427.92 327.063C1442.42 310.389 1456.01 292.989 1468.9 275.052C1469.37 274.4 1468.3 273.78 1467.83 274.424Z" fill="#1E293B"/>
<path d="M1466.98 262.769C1411.69 338.405 1341.68 402.262 1258.85 446.539C1170.32 493.862 1071.54 515.662 971.349 510.71C865.262 505.46 762.708 475.892 660.492 449.362C565.606 424.739 469.705 403.88 371.18 404.656C283.162 405.349 194.516 421.041 113.176 455.198C27.5853 491.138 -46.7219 548.54 -103.934 621.584C-158.826 691.665 -198.58 773.014 -226.811 857.168C-256.147 944.625 -275.644 1039.38 -268.752 1132.04C-266.086 1167.88 -257.765 1200.92 -242.733 1233.6C-233.959 1252.68 -225.044 1271.92 -223.03 1293.08C-220.768 1316.89 -227.719 1340.13 -241.71 1359.45C-267.613 1395.2 -313.78 1413.88 -354.822 1425.38C-401.889 1438.59 -451.028 1441.82 -499.152 1449.45C-520.837 1452.9 -542.447 1457.15 -563.207 1464.4C-563.958 1464.67 -563.636 1465.86 -562.877 1465.6C-517.642 1449.78 -468.734 1446.77 -421.626 1439.9C-376.944 1433.37 -332.312 1423.64 -292.178 1402.16C-258.376 1384.06 -228.09 1355.87 -222.32 1316.14C-216.385 1275.3 -240.323 1241.75 -253.39 1205.06C-265.714 1170.44 -268.818 1132.92 -268.743 1096.41C-268.636 1047.01 -261.975 997.652 -251.318 949.479C-230.814 856.714 -195.765 765.634 -146.057 684.542C-95.6299 602.285 -27.753 531.602 56.7237 484.089C138.122 438.309 230.778 414.355 323.592 407.751C423.637 400.627 521.882 416.195 618.815 440.051C719.462 464.823 818.971 495.909 922.284 507.837C1020.8 519.212 1118.64 509.224 1210.54 470.84C1293.51 436.18 1367.43 381.848 1426.97 314.624C1441.49 298.222 1455.12 281.069 1468.04 263.388C1468.52 262.752 1467.44 262.133 1466.98 262.769Z" fill="#1E293B"/>
<path d="M1466.12 251.113C1409.9 326.782 1338.54 390.02 1254.7 433.546C1164.12 480.58 1063.51 501.472 961.708 495.909C855.464 490.106 752.646 460.976 650.026 435.057C554.38 410.904 457.679 390.672 358.542 391.968C269.624 393.132 180.145 409.302 98.1367 444.26C12.2237 480.886 -62.2073 539.13 -119.205 613.057C-173.932 684.038 -213.215 766.451 -240.092 851.703C-268.042 940.34 -285.112 1037.1 -273.061 1130.07C-268.372 1166.25 -257.386 1198.55 -240.026 1230.59C-229.898 1249.29 -219.712 1268.19 -216.129 1289.4C-211.804 1315.02 -217.896 1340.94 -232.919 1362.16C-258.731 1398.61 -304.643 1418.35 -346.047 1430.69C-393.024 1444.68 -442.212 1448.87 -490.237 1457.92C-511.625 1461.96 -532.897 1466.9 -553.194 1474.89C-553.929 1475.18 -553.607 1476.37 -552.864 1476.08C-508.744 1458.72 -460.372 1454.37 -413.949 1446.65C-368.533 1439.1 -323.182 1428.6 -282.677 1405.86C-248.949 1386.93 -219.043 1357.94 -214.148 1317.73C-209.006 1275.51 -234.562 1242.36 -251.219 1206.07C-267.571 1170.44 -273.407 1130.97 -275.001 1092.07C-276.957 1044.19 -272.252 996.067 -263.428 949.032C-245.705 854.568 -211.589 761.647 -162.392 678.994C-112.189 594.658 -43.7255 522.133 41.9812 473.382C123.916 426.769 217.406 402.294 311.045 395.286C411.759 387.75 510.813 402.748 608.596 426.117C709.062 450.129 808.364 480.448 911.24 492.706C1011.71 504.683 1111.62 495.554 1205.84 457.41C1289.92 423.376 1365.35 369.54 1426 302.208C1440.54 286.062 1454.21 269.174 1467.17 251.732C1467.66 251.096 1466.59 250.477 1466.12 251.113Z" fill="#1E293B"/>
<path d="M1465.26 239.45C1407.87 315.466 1334.78 378.332 1249.48 421.091C1158.13 466.879 1057.26 486.871 955.36 481.283C845.996 475.282 740.165 445.376 634.317 419.506C537.071 395.741 438.751 376.706 338.194 379.488C248.534 381.973 158.502 399.547 76.4106 436.296C-8.16517 474.159 -81.0278 533.286 -136.556 607.387C-191.548 680.761 -230.303 765.89 -255.413 853.834C-280.853 942.917 -294.374 1041.1 -276.008 1132.91C-272.681 1149.53 -268.166 1165.96 -261.76 1181.67C-253.514 1201.9 -241.529 1219.99 -230.311 1238.62C-218.779 1257.77 -208.981 1278.08 -206.909 1300.64C-204.573 1326.06 -212.762 1351.28 -228.594 1371.19C-256.205 1405.9 -301.176 1425.33 -342.572 1437.74C-389.375 1451.77 -438.325 1456.74 -485.887 1467.51C-505.492 1471.95 -524.873 1477.39 -543.322 1485.45C-544.049 1485.77 -543.421 1486.84 -542.695 1486.53C-498.376 1467.14 -448.998 1461.68 -401.881 1452.73C-357.752 1444.35 -313.797 1433.19 -274.596 1410.53C-240.769 1390.97 -210.723 1361.59 -205.91 1320.95C-200.85 1278.19 -226.307 1244.71 -246.457 1209.76C-290.841 1132.79 -288.059 1033.98 -275.083 948.959C-260.308 852.183 -226.893 756.678 -177.705 672.003C-128.483 587.263 -60.796 514.111 24.2091 464.485C105.78 416.865 199.122 391.399 292.852 383.326C394.086 374.61 493.998 388.271 592.607 410.888C696.308 434.678 798.673 465.657 904.653 478.113C1006.03 490.033 1107 481.225 1202.37 443.535C1287.11 410.022 1363.5 356.945 1425.06 289.827C1439.64 273.937 1453.33 257.288 1466.32 240.078C1466.8 239.442 1465.73 238.823 1465.26 239.45Z" fill="#1E293B"/>
<path d="M1464.39 227.793C1406.05 303.867 1331.62 366.056 1245.31 408.088C1150.73 454.149 1046.68 473.002 941.905 466.233C833.086 459.2 727.667 429.922 622.034 404.877C524.07 381.657 425.024 363.489 323.931 366.931C232.883 370.035 141.44 388.509 58.4817 426.768C-26.482 465.953 -99.2374 526.64 -154.188 602.268C-208.222 676.641 -245.953 762.686 -269.033 851.455C-292.319 941 -302.555 1040.03 -279.244 1130.71C-275.009 1147.2 -269.503 1163.42 -262.124 1178.76C-251.929 1199.96 -237.666 1218.53 -224.764 1238.08C-211.953 1257.49 -201.172 1278.54 -198.647 1301.98C-195.956 1326.96 -203.137 1351.95 -218.02 1372.13C-244.798 1408.45 -290.239 1429.3 -331.998 1442.74C-378.149 1457.61 -426.595 1463.62 -473.539 1475.39C-494.018 1480.52 -514.242 1486.76 -533.301 1495.92C-534.019 1496.27 -533.392 1497.33 -532.674 1496.99C-489.412 1476.2 -440.562 1469.39 -394.015 1459.62C-348.672 1450.09 -303.471 1437.96 -263.601 1413.55C-230.336 1393.18 -201.379 1363.2 -197.293 1322.64C-192.786 1277.94 -220.29 1243.53 -243.485 1208.49C-293.111 1133.54 -296.388 1036.49 -286.351 949.849C-274.902 851.042 -242.602 753.185 -193.818 666.529C-145.471 580.649 -78.2049 506.235 6.75063 455.428C88.5694 406.495 182.522 380.089 277.045 371.174C378.741 361.591 479.404 374.278 578.731 396.194C682.903 419.182 785.639 449.683 891.784 462.733C994.528 475.363 1097.05 467.958 1194.41 431.35C1280.51 398.975 1358.75 346.79 1421.85 279.887C1437.29 263.51 1451.78 246.283 1465.48 228.421C1465.95 227.785 1464.87 227.174 1464.39 227.793Z" fill="#1E293B"/>
<path d="M1463.63 216.014C1404.41 292.047 1328.81 353.551 1241.63 394.857C1146.15 440.1 1041.48 458.334 936.251 451.656C826.573 444.698 720.156 415.782 613.524 391.175C514.181 368.244 413.723 350.398 311.367 354.352C218.355 357.943 125.005 377.299 40.6191 417.293C-45.459 458.095 -118.586 521.151 -173.057 599.173C-226.456 675.659 -263.114 763.925 -283.635 854.741C-303.751 943.758 -309.752 1042.27 -281.522 1130.29C-276.255 1146.71 -269.635 1162.76 -261.108 1177.77C-249.428 1198.31 -234.149 1216.3 -220.339 1235.38C-190.606 1276.49 -176.417 1327.79 -207.347 1372.98C-233.026 1410.5 -278.121 1432.71 -319.848 1447.27C-366.89 1463.69 -416.582 1470.68 -464.467 1484.11C-484.707 1489.79 -504.633 1496.65 -523.297 1506.43C-524.006 1506.8 -523.379 1507.86 -522.669 1507.5C-479.383 1484.82 -429.74 1476.78 -382.607 1465.83C-337.281 1455.29 -292.046 1442.17 -252.614 1416.63C-219.44 1395.13 -191.209 1363.96 -188.386 1322.76C-185.282 1277.55 -213.422 1242.79 -238.912 1208.72C-293.499 1135.77 -303.834 1042.2 -297.271 953.523C-289.933 854.452 -260.134 755.976 -213.686 668.28C-166.536 579.246 -99.4106 501.596 -13.4645 448.165C68.2057 397.391 162.695 369.582 257.903 359.462C361.183 348.483 463.713 360.171 564.888 381.641C669.539 403.838 772.671 433.876 879.022 447.389C982.93 460.596 1086.85 454.677 1186 419.249C1273.61 387.948 1353.8 336.712 1418.58 269.9C1434.86 253.102 1450.12 235.363 1464.5 216.906C1464.99 216.27 1464.12 215.387 1463.63 216.014Z" fill="#1E293B"/>
<path d="M1462.77 204.359C1402.6 280.425 1325.66 341.343 1237.48 381.865C1139.72 426.786 1033.11 444.046 926.032 436.782C813.308 429.138 703.919 399.348 594.052 375.03C494.964 353.098 394.771 336.976 292.976 342.061C200.352 346.684 107.563 366.792 23.8378 407.371C-62.2156 449.081 -135.045 513.087 -188.881 591.992C-242.362 670.368 -278.525 760.995 -296.784 853.965C-314.375 943.543 -316.595 1042.69 -283.47 1129.15C-277.04 1145.93 -269.099 1162.13 -259.218 1177.15C-246.382 1196.67 -230.542 1213.81 -216.179 1232.15C-183.978 1273.27 -166.454 1326.01 -196.698 1373.8C-221.767 1413.42 -268.117 1437.22 -310.809 1452.86C-357.827 1470.08 -407.618 1478.03 -455.362 1492.88C-475.379 1499.11 -495.017 1506.56 -513.284 1516.92C-513.977 1517.31 -513.35 1518.38 -512.656 1517.99C-469.353 1493.44 -418.935 1484.16 -371.207 1472.01C-326.336 1460.58 -281.679 1446.61 -242.899 1420.55C-209.732 1398.25 -181.766 1366.22 -179.455 1324.57C-176.871 1277.95 -206.34 1242.02 -234.232 1208.19C-262.47 1173.94 -282.025 1137.25 -293.334 1094.25C-305.319 1048.66 -308.952 1001.01 -307.268 953.994C-303.652 852.636 -274.984 751.213 -228.577 661.222C-182.699 572.239 -116.844 494.407 -32.2104 440.142C49.3608 387.849 144.246 358.876 240.04 347.699C342.388 335.755 444.422 345.743 545.061 365.933C652.362 387.453 757.92 417.871 866.616 432.069C972.315 445.878 1078.2 441.116 1179.59 406.364C1268.97 375.731 1351.27 324.851 1417.64 257.51C1433.95 240.968 1449.24 223.477 1463.65 205.259C1464.14 204.615 1463.26 203.732 1462.77 204.359Z" fill="#1E293B"/>
<path d="M1461.91 192.696C1400.87 268.695 1322.79 328.846 1233.8 368.641C1133.97 413.289 1025.37 429.691 916.597 421.932C803.7 413.875 694.006 384.671 583.742 360.997C482.773 339.312 380.689 323.703 277.144 329.687C183.183 335.119 89.1146 356.317 4.67912 398.638C-82.0098 442.089 -154.699 508.332 -207.685 589.391C-260.159 669.658 -295.009 762.332 -310.156 856.953C-324.387 945.896 -322.216 1043.64 -285.269 1127.2C-277.171 1145.51 -267.15 1162.82 -255.008 1178.75C-240.876 1197.3 -224.351 1213.8 -209.55 1231.78C-175.591 1273.06 -157.035 1327.53 -187.321 1376.69C-211.771 1416.39 -256.939 1440.99 -299.128 1457.5C-345.849 1475.79 -395.574 1484.79 -443.103 1500.63C-463.996 1507.6 -484.442 1515.9 -503.287 1527.39C-503.964 1527.8 -503.345 1528.87 -502.66 1528.46C-459.852 1502.36 -409.326 1491.77 -361.541 1478.6C-316.091 1466.08 -270.857 1451.12 -231.97 1423.67C-198.836 1400.27 -171.522 1367 -170.35 1324.72C-169.054 1278.02 -198.58 1241.66 -227.974 1208.79C-243.897 1190.98 -259.383 1172.85 -271.335 1152.07C-281.563 1134.3 -289.57 1115.29 -295.909 1095.81C-310.454 1051.07 -316.413 1003.69 -316.719 956.75C-317.379 855.005 -291.369 752.633 -246.968 661.346C-202.79 570.521 -137.992 490.461 -53.7216 434.025C28.4686 378.983 125.03 348.202 222.689 335.911C326.061 322.911 429.382 331.949 531.309 351.545C639.707 372.38 746.315 402.459 855.902 416.93C962.723 431.037 1069.88 427.264 1172.83 393.503C1263.07 363.903 1346.67 314.177 1414.35 247.398C1431.55 230.427 1447.64 212.407 1462.77 193.579C1463.28 192.96 1462.41 192.076 1461.91 192.696Z" fill="#1E293B"/>
<path d="M1461.05 181.04C1398.31 257.997 1317.73 318.016 1226.46 357.019C1125.21 400.289 1015.8 415.238 906.362 407.024C791.063 398.374 678.958 368.699 566.078 345.479C464.539 324.587 361.886 310.413 258.036 317.611C162.283 324.248 66.4647 347.187 -18.6972 392.257C-105.411 438.144 -177.093 507.102 -228.478 590.481C-279.565 673.381 -312.509 768.779 -323.52 865.53C-333.64 954.464 -326.112 1051.88 -283.164 1132.03C-261.017 1173.37 -225.572 1202.45 -196.689 1238.55C-163.671 1279.82 -149.416 1334.83 -179.396 1382.14C-204.473 1421.71 -249.155 1446.65 -291.46 1463.78C-338.114 1482.67 -387.848 1492.57 -435.088 1509.84C-455.37 1517.25 -475.139 1526.05 -493.266 1537.88C-493.935 1538.31 -493.307 1539.38 -492.639 1538.95C-451.085 1511.84 -401.517 1499.93 -354.483 1486.05C-308.943 1472.6 -263.65 1457.22 -224.598 1429.42C-191.126 1405.59 -163.102 1371.99 -161.261 1329.24C-159.255 1282.74 -187.502 1244.89 -217.837 1212.81C-235.23 1194.42 -253.15 1176.46 -267.505 1155.49C-279.144 1138.49 -288.595 1120.02 -296.28 1100.92C-313.549 1057.98 -322.241 1011.78 -325.08 965.707C-331.453 862.269 -308.406 757.14 -265.664 663.096C-223.17 569.581 -158.95 486.408 -74.2419 427.52C6.62764 371.299 102.009 339.015 199.024 325.107C304.187 310.034 409.811 317.669 513.942 336.597C624.743 356.738 733.62 386.991 845.386 401.849C952.827 416.137 1060.63 413.413 1164.7 381.064C1257.37 352.256 1343.69 302.696 1413.41 235.009C1430.63 218.293 1446.76 200.521 1461.92 181.924C1462.43 181.305 1461.55 180.421 1461.05 181.04Z" fill="#1E293B"/>
<path d="M1460.19 169.385C1395.52 247.556 1312.09 307.533 1218.18 345.685C1114.88 387.651 1003.98 400.949 893.254 391.878C777.839 382.426 665.487 353.271 552.21 330.852C449.219 310.463 345.063 297.198 239.975 305.56C144.099 313.196 48.3874 337.043 -36.4773 383.111C-123.538 430.368 -194.997 501.052 -245.506 586.065C-295.801 670.707 -327.317 768.003 -335.134 866.199C-342.274 955.967 -330.28 1053.56 -282.726 1131.75C-257.839 1172.66 -219.835 1201.22 -189.673 1237.69C-156.003 1278.4 -139.981 1333.5 -167.889 1381.92C-191.497 1422.87 -235.807 1449.38 -278.005 1467.71C-325.897 1488.52 -377.364 1499.54 -425.876 1518.71C-445.959 1526.65 -465.456 1536.02 -483.228 1548.37C-483.88 1548.82 -483.261 1549.9 -482.601 1549.44C-441.023 1520.56 -390.72 1507.37 -343.042 1492.27C-297.014 1477.7 -251.161 1461.12 -212.266 1431.69C-179.611 1406.99 -153.015 1372.83 -151.908 1330.31C-150.679 1283.18 -179.454 1244.54 -211.027 1212.63C-229.229 1194.24 -248.354 1176.69 -264.343 1156.25C-277.229 1139.77 -287.959 1121.67 -296.866 1102.77C-316.858 1060.33 -327.986 1013.95 -332.856 967.424C-343.826 862.691 -323.124 755.159 -281.331 658.961C-240.479 564.934 -177.613 480.911 -94.0856 420.735C-13.0345 362.343 83.3205 328.565 181.558 313.559C287.81 297.33 394.887 304.099 500.38 322.432C611.626 341.773 720.941 371.365 832.946 386.512C942.096 401.279 1051.81 399.686 1157.99 368.113C1252.54 339.998 1341.04 290.9 1412.5 222.635C1429.73 206.167 1445.89 188.635 1461.08 170.269C1461.57 169.649 1460.69 168.766 1460.19 169.385Z" fill="#1E293B"/>
<path d="M1459.33 157.729C1393.3 236.42 1307.89 295.927 1212.33 333.262C1106.35 374.675 993.157 386.561 880.269 376.705C764.028 366.552 650.719 337.595 536.36 315.919C431.165 295.984 324.781 283.867 217.753 293.978C121.216 303.1 25.1003 328.697 -59.4755 376.969C-147.427 427.165 -218.35 501.662 -267.151 590.142C-315.539 677.871 -344.223 778.164 -346.658 878.456C-348.829 967.836 -330.661 1063.94 -277.37 1137.63C-248.71 1177.26 -207.462 1204.92 -177.317 1243.14C-144.357 1284.93 -131.504 1340.73 -160.296 1388.39C-184.738 1428.83 -228.454 1455.5 -270.618 1474.27C-317.396 1495.09 -367.575 1507.04 -414.783 1526.83C-435.345 1535.45 -455.238 1545.59 -473.233 1558.85C-473.869 1559.32 -473.25 1560.4 -472.606 1559.92C-431.738 1529.8 -381.715 1515.32 -334.202 1499.31C-289.124 1484.13 -244.352 1467.33 -205.968 1438.49C-172.538 1413.38 -144.604 1378.63 -142.623 1335.26C-140.535 1289.48 -166.702 1249.9 -197.615 1218.64C-215.94 1200.11 -235.924 1183.29 -253.729 1164.24C-269.066 1147.83 -282.323 1129.78 -293.45 1110.28C-316.67 1069.59 -330.917 1024.04 -338.618 977.956C-356.077 873.487 -339.956 764.742 -301.58 666.587C-264.13 570.802 -203.897 483.956 -122.416 420.545C-40.812 357.035 58.1679 319.782 159.566 302.794C266.19 284.932 374.126 290.049 480.453 307.276C595.537 325.923 708.509 356.11 824.138 371.653C933.304 386.33 1043.16 385.538 1149.77 355.516C1245.7 328.507 1336.06 280.466 1409.2 212.449C1427.33 195.593 1444.3 177.565 1460.21 158.604C1460.71 157.994 1459.84 157.119 1459.33 157.729Z" fill="#1E293B"/>
<path d="M1458.47 146.066C1390.8 225.549 1303.05 284.684 1205.46 321.169C1098 361.344 983.781 371.967 870.001 361.74C751.433 351.083 635.762 321.871 518.862 300.78C412.395 281.572 304.698 270.792 196.705 282.431C99.1279 292.947 2.12077 320.311 -82.4138 371.068C-170.143 423.748 -239.844 500.837 -286.713 591.538C-332.889 680.893 -358.709 782.399 -356.81 883.17C-355.135 972.17 -332.129 1066.16 -275.66 1136.81C-243.294 1177.31 -197.927 1205.24 -166.544 1246.53C-134.731 1288.37 -122.655 1343.18 -150.101 1390.57C-174.575 1432.82 -219.447 1460.9 -262.775 1480.72C-309.256 1501.98 -359.08 1514.88 -405.71 1535.8C-426.091 1544.93 -445.703 1555.67 -463.36 1569.43C-463.987 1569.91 -463.104 1570.79 -462.485 1570.3C-420.766 1537.8 -368.771 1522.02 -319.673 1504.39C-275.107 1488.38 -230.937 1470.43 -193.528 1440.7C-160.006 1414.06 -133.08 1377.41 -133.055 1332.98C-133.03 1286.42 -160.741 1246.76 -192.909 1215.6C-228.841 1180.79 -267.695 1150.9 -294.604 1107.91C-319.261 1068.51 -335.39 1024.08 -344.932 978.724C-366.774 874.874 -354.152 765.568 -318.105 666.365C-282.701 568.937 -223.574 479.928 -142.589 414.586C-61.1748 348.888 38.3334 309.893 140.722 291.651C247.627 272.6 356.264 276.479 463.235 292.741C579.392 310.405 693.395 340.121 809.842 356.086C921.938 371.456 1034.86 371.802 1144.69 342.004C1241.85 315.639 1333.77 268.249 1408.23 200.084C1426.37 183.475 1443.38 165.679 1459.32 146.949C1459.86 146.338 1458.99 145.463 1458.47 146.066Z" fill="#1E293B"/>
<path d="M1457.61 134.411C1389.07 213.803 1300.18 272.13 1201.82 307.847C1092.37 347.592 976.327 357.415 860.879 346.882C740.875 335.929 623.652 306.914 505.134 286.435C397.974 267.911 289.584 258.006 181.119 270.413C81.768 281.771 -16.9477 310.513 -102.291 363.59C-190.515 418.466 -259.721 498.246 -305.039 591.464C-349.638 683.213 -372.668 786.956 -366.023 889.023C-360.187 978.708 -331.585 1072.03 -270.171 1139.61C-234.454 1178.92 -187.123 1206.94 -155.549 1250.12C-124.405 1292.7 -113.583 1347.37 -140.947 1394.76C-165.298 1436.93 -209.385 1465.58 -252.333 1486.07C-298.584 1508.14 -348.284 1522.01 -394.633 1543.89C-415.484 1553.73 -435.493 1565.26 -453.348 1579.92C-453.967 1580.42 -453.083 1581.3 -452.473 1580.79C-412.29 1547.81 -361.83 1530.75 -313.854 1512.63C-269.148 1495.75 -224.78 1477.52 -186.958 1447.62C-153.263 1420.99 -125.313 1384.62 -123.58 1340.16C-121.739 1292.98 -148.525 1251.21 -181.006 1219.37C-217.805 1183.29 -260.423 1154.41 -290.832 1112.08C-318.171 1074.01 -337.107 1030.27 -349.184 985.114C-376.721 882.147 -368.772 771.949 -335.894 671.194C-303.33 571.397 -245.73 479.252 -165.381 411.078C-84.1065 342.12 16.4913 300.682 120.548 280.846C228.195 260.326 338.038 262.959 446.147 278.337C564.014 295.102 679.668 324.521 797.616 340.799C910.819 356.425 1024.96 357.869 1136.3 329.35C1234.9 304.091 1328.73 257.783 1404.94 189.84C1423.99 172.861 1441.8 154.602 1458.46 135.294C1459 134.684 1458.13 133.809 1457.61 134.411Z" fill="#1E293B"/>
<path d="M1456.75 122.755C1386.41 203.105 1294.92 261.084 1194.3 295.902C1081.54 334.921 962.608 342.928 844.444 331.33C724.316 319.535 606.772 291.048 487.833 271.567C379.022 253.746 268.939 245.12 159.146 259.219C59.1094 272.063 -39.986 302.629 -124.892 358.042C-212.151 414.981 -279.763 496.718 -322.91 591.29C-365.297 684.203 -385.306 788.548 -374.756 890.434C-365.387 980.928 -331.99 1073.25 -267.018 1138.83C-228.329 1177.87 -178.86 1206.33 -146.23 1251.3C-114.805 1294.6 -103.942 1349.99 -131.289 1398.2C-155.376 1440.67 -198.811 1469.98 -241.586 1491.29C-288.298 1514.55 -338.676 1529.47 -385.347 1552.84C-406.024 1563.19 -425.777 1575.27 -443.326 1590.4C-443.929 1590.92 -443.054 1591.8 -442.452 1591.28C-402.236 1556.6 -351.107 1538.22 -302.455 1518.84C-257.245 1500.84 -212.34 1481.4 -174.592 1449.97C-140.724 1421.78 -113.658 1383.49 -113.831 1337.84C-114.004 1289.71 -142.524 1247.77 -176.326 1215.88C-213.801 1180.54 -257.286 1152.36 -289.479 1111.55C-319.286 1073.76 -340.624 1029.65 -354.723 983.767C-386.255 881.106 -381.624 769.893 -350.521 667.727C-320.169 568.045 -264.484 475.388 -186.116 406.157C-104.982 334.483 -3.44328 290.99 102.016 269.818C208.756 248.389 318.07 249.586 425.66 263.602C546.423 279.335 664.884 308.828 785.491 325.536C900.988 341.533 1017.53 343.844 1131.41 315.762C1231.18 291.155 1326.52 245.524 1404 177.482C1423.06 160.751 1440.91 142.723 1457.61 123.638C1458.14 123.036 1457.28 122.153 1456.75 122.755Z" fill="#1E293B"/>
<path d="M1455.89 111.1C1383.9 192.217 1290.05 249.727 1187.43 283.644C1073.23 321.392 953.246 328.219 834.167 316.349C711.818 304.157 591.971 275.621 470.621 256.834C362.636 240.11 253.412 232.665 144.708 247.151C41.1554 260.953 -61.3162 293.69 -147.98 353.123C-234.364 412.365 -300.309 496.454 -341.062 592.677C-381.228 687.522 -397.663 793.212 -382.4 895.412C-368.541 988.225 -328.589 1079.4 -258.005 1142.92C-216.889 1179.93 -167.263 1208.85 -135.095 1254.91C-104.644 1298.51 -94.8048 1353.3 -121.327 1401.27C-145.603 1445.19 -190.012 1475.77 -233.77 1498.04C-280.449 1521.8 -330.727 1537.7 -376.994 1562.36C-397.16 1573.1 -416.335 1585.56 -433.314 1600.91C-433.909 1601.45 -433.025 1602.32 -432.439 1601.78C-392.842 1566 -341.962 1546.32 -293.408 1526.03C-248.215 1507.15 -203.269 1487.07 -165.554 1455.12C-132.487 1427.1 -105.602 1389.56 -104.174 1344.84C-102.622 1296.11 -130.225 1252.19 -164.159 1219.46C-203.137 1181.86 -250.287 1153.82 -286.095 1112.77C-317.569 1076.68 -341.136 1034.03 -357.496 989.142C-394.419 887.867 -394.873 776.084 -367.196 672.515C-339.675 569.531 -284.791 472.937 -205.919 400.677C-125.52 327.014 -23.9314 281.729 82.0236 259.178C189.522 236.296 300.042 236.338 408.779 249.479C530.483 264.188 649.901 293.013 771.259 309.985C887.945 326.296 1005.83 329.927 1121.32 303.373C1224.15 279.732 1322.94 234.439 1403.07 165.126C1422.14 148.625 1440.02 130.837 1456.76 111.975C1457.29 111.381 1456.42 110.498 1455.89 111.1Z" fill="#1E293B"/>
<path d="M1455.02 99.4368C1381.98 180.645 1286.72 237.395 1183.09 270.503C1067.16 307.55 945.703 313.534 825.228 301.491C700.618 289.035 578.418 260.515 454.641 242.389C344.609 226.267 233.33 219.928 122.901 236.132C18.6542 251.427 -84.1558 286.121 -170.259 347.956C-255.165 408.923 -319.22 494.44 -357.686 591.365C-396.573 689.362 -409.582 798.091 -388.888 901.842C-370.026 996.414 -323.677 1084.41 -248.644 1146.07C-206.042 1181.08 -157.076 1210.4 -125.255 1256.6C-94.8537 1300.73 -85.1464 1355.74 -111.313 1404.29C-135.078 1448.37 -178.612 1479.64 -221.899 1502.71C-268.892 1527.75 -319.748 1544.71 -366.312 1570.64C-386.8 1582.05 -406.222 1595.23 -423.293 1611.37C-423.87 1611.91 -422.996 1612.79 -422.418 1612.24C-383.919 1575.86 -334.136 1555.01 -286.26 1534.08C-240.414 1514.04 -194.659 1493.2 -156.408 1460.24C-122.985 1431.44 -95.803 1392.95 -94.3832 1347.46C-92.8974 1299.96 -118.693 1256.16 -151.372 1223.51C-190.804 1184.12 -240.183 1156.44 -279.26 1116.63C-312.748 1082.51 -338.866 1041.48 -357.826 997.702C-401.361 897.211 -407.543 783.513 -383.151 677.344C-359.287 573.469 -307.16 474.894 -230.649 400.198C-151.48 322.903 -49.6107 274.449 57.467 249.685C166.047 224.575 278.366 223.023 388.77 235.116C513.24 248.753 635.374 277.479 759.307 294.755C877.083 311.182 996.113 315.746 1113.01 290.471C1217.73 267.829 1318.86 223.387 1400.97 153.793C1420.5 137.243 1438.8 119.338 1455.92 100.312C1456.43 99.7257 1455.56 98.8425 1455.02 99.4368Z" fill="#1E293B"/>
<path d="M1454.16 87.7813C1379.45 169.749 1281.81 225.97 1176.21 258.163C1058.13 294.161 934.856 298.808 812.714 286.286C686.676 273.368 562.924 245.154 437.505 227.894C326.3 212.581 213.799 207.422 102.528 225.054C-3.10459 241.794 -106.938 278.617 -192.909 343.399C-277.072 406.818 -339.567 495.018 -375.367 593.866C-411.39 693.3 -420.239 802.573 -394.988 905.647C-383.3 953.358 -364.52 999.501 -338.42 1041.16C-312.666 1082.28 -279.887 1117.01 -241.536 1146.61C-197.292 1180.76 -147.938 1210.69 -115.787 1257.64C-84.9976 1302.6 -75.2739 1358.38 -101.507 1407.85C-125.494 1453.09 -169.656 1485.43 -213.71 1509.42C-260.315 1534.8 -310.676 1552.66 -356.563 1579.46C-377.043 1591.42 -396.375 1605.18 -413.288 1621.86C-413.858 1622.42 -412.983 1623.29 -412.413 1622.73C-374.434 1585.29 -324.89 1563.2 -277.039 1541.34C-230.838 1520.24 -184.646 1498.53 -146.254 1464.56C-112.411 1434.61 -85.2122 1394.78 -84.5024 1348.16C-83.7595 1299.75 -110.455 1255.33 -143.951 1222.23C-183.887 1182.78 -233.769 1155.4 -274.728 1117.12C-310.395 1083.79 -338.874 1043.18 -360.121 999.328C-407.989 900.546 -419.009 786.724 -397.902 679.531C-377.166 574.204 -326.896 473.639 -251.681 396.641C-173.238 316.341 -70.478 265.526 37.813 239.227C147.062 212.697 260.504 210.047 371.973 221.249C498.102 233.928 621.944 262.158 747.396 279.575C866.806 296.15 987.528 301.54 1106.29 277.181C1212.3 255.431 1315.17 211.971 1398.83 142.468C1418.81 125.868 1437.54 107.856 1455.04 88.6645C1455.58 88.0702 1454.7 87.1953 1454.16 87.7813Z" fill="#1E293B"/>
<path d="M1453.31 76.1259C1376.72 159.043 1276.4 214.769 1168.53 245.979C1048.68 280.665 924.035 283.991 800.613 271.122C673.923 257.907 549.329 230.312 423.093 213.861C309.461 199.052 194.443 194.834 81.0752 214.282C-25.1109 232.491 -129.019 271.213 -214.296 338.215C-297.848 403.863 -358.932 494.671 -392.156 595.343C-425.521 696.436 -430.201 806.519 -400.419 909.073C-386.65 956.479 -365.775 1001.98 -337.809 1042.71C-309.43 1084.02 -273.902 1117.83 -233.562 1147.34C-187.659 1180.92 -137.703 1211.72 -105.436 1259.88C-75.1499 1305.08 -65.6406 1360.57 -91.048 1410.25C-114.639 1456.38 -158.702 1489.78 -202.905 1514.73C-249.543 1541.06 -300.052 1559.93 -345.898 1587.76C-366.699 1600.39 -386.271 1614.88 -403.275 1632.35C-403.828 1632.92 -402.953 1633.79 -402.4 1633.23C-328.184 1557.04 -214.453 1540.06 -136.06 1468.92C-102.192 1438.19 -75.0838 1397.48 -74.5803 1350.34C-74.0603 1301.94 -100.235 1257.54 -133.385 1224C-173.89 1183.03 -225.431 1155.43 -268.941 1118.05C-306.705 1085.6 -337.61 1045.7 -361.227 1001.95C-413.544 905.012 -429.797 791.19 -412.297 682.866C-395.07 576.242 -347.029 473.763 -273.498 394.371C-196.607 311.347 -93.9536 257.965 14.7502 229.767C124.56 201.281 239.223 197.129 351.815 207.199C479.975 218.665 605.856 246.433 733.165 264.106C853.814 280.854 975.84 287.384 1096.16 264.519C1204.4 243.949 1309.94 201.496 1395.99 131.695C1416.69 114.906 1436.08 96.5971 1454.16 77.0174C1454.73 76.4148 1453.85 75.5399 1453.31 76.1259Z" fill="#1E293B"/>
<path d="M1452.45 64.4705C1374.36 147.915 1271.97 202.965 1162.47 233.267C1040.37 267.061 913.749 269.199 788.462 255.951C660.55 242.421 534.578 215.281 406.947 199.679C292.473 185.688 176.604 182.502 62.6918 203.072C-44.5096 222.437 -149.169 262.86 -234.223 332.115C-317.528 399.942 -377.497 493.408 -408.245 596.086C-439.166 699.35 -439.521 810.869 -404.844 913.241C-388.938 960.193 -366.015 1004.88 -336.241 1044.56C-305.229 1085.88 -267.01 1118.67 -224.838 1148.15C-178.059 1180.85 -128.491 1212.2 -96.1169 1260.49C-64.9148 1307.04 -55.5129 1364.07 -81.7788 1415.11C-132.255 1513.19 -249.981 1541.87 -336.513 1596.84C-357.158 1609.96 -376.498 1624.95 -393.255 1642.83C-393.8 1643.4 -392.925 1644.29 -392.38 1643.7C-319.129 1565.55 -205.184 1546.32 -126.906 1474.28C-92.7572 1442.84 -65.4348 1401.5 -64.6176 1353.71C-63.7674 1304.01 -90.6359 1258.34 -124.595 1223.88C-165.224 1182.64 -217.046 1154.99 -262.074 1119.17C-301.985 1087.41 -335.415 1048.37 -361.524 1004.59C-417.746 910.303 -439.43 797.645 -426.397 688.974C-413.297 579.775 -367.022 473.853 -294.151 391.308C-218.259 305.337 -115.061 249.463 -5.26762 219.622C105.376 189.551 221.385 184.31 335.248 193.546C464.786 204.046 592.128 231.154 720.717 248.86C843.189 265.724 967.09 273.079 1089.43 251.105C1199.19 231.393 1306.64 189.832 1394.38 119.908C1415.35 103.192 1435.01 84.9252 1453.33 65.3372C1453.87 64.7594 1452.99 63.8845 1452.45 64.4705Z" fill="#1E293B"/>
<path d="M1451.59 52.8057C1371.99 136.779 1267.51 191.143 1156.37 220.529C1032.04 253.407 903.415 254.364 776.254 240.769C647.096 226.968 519.737 200.314 390.702 185.58C274.892 172.356 157.611 170.193 42.7003 192.249C-66.086 213.125 -171.917 255.875 -256.724 328.408C-339.154 398.901 -397.29 495.38 -424.761 600.064C-452.199 704.624 -447.626 816.192 -408.541 917.219C-390.703 963.32 -366.014 1006.83 -334.886 1045.26C-300.886 1087.24 -259.357 1119.48 -214.799 1149.51C-166.717 1181.91 -116.942 1214.42 -84.832 1264.02C-54.4141 1311.02 -46.0028 1367.83 -71.8724 1418.81C-122.357 1518.3 -240.553 1548.55 -327.127 1605.96C-347.614 1619.55 -366.74 1635.03 -383.249 1653.31C-383.786 1653.89 -382.911 1654.78 -382.374 1654.18C-310.048 1574.11 -195.938 1552.68 -117.734 1479.7C-83.7506 1447.98 -56.3869 1406.6 -54.6947 1358.87C-52.9035 1308.18 -79.5904 1261.32 -113.814 1225.76C-153.584 1184.43 -204.721 1156.69 -250.64 1123.09C-294.249 1091.17 -331.592 1052.33 -361.193 1007.05C-421.303 915.114 -448.411 803.207 -439.562 693.926C-430.564 582.746 -386.51 473.992 -314.679 388.55C-239.629 299.277 -135.531 240.761 -24.2109 209.303C86.9115 177.903 203.837 171.662 318.583 180C449.499 189.509 578.311 215.948 708.196 233.662C831.915 250.534 957.103 258.706 1080.9 237.988C1192.79 219.266 1302.83 178.555 1392.74 108.144C1413.99 91.5028 1433.91 73.2686 1452.47 53.6889C1453.01 53.1028 1452.13 52.2279 1451.59 52.8057Z" fill="#1E293B"/>
<path d="M1450.72 41.1515C1370.03 125.216 1264.1 178.787 1151.95 207.323C1026.13 239.342 896.208 239.582 767.818 225.995C636.1 212.053 506.083 185.548 374.366 171.556C257.721 159.166 139.575 157.994 24.1351 181.222C-86.2195 203.427 -193.272 248.332 -277.881 323.894C-359.213 396.533 -415.533 495.29 -440.016 601.32C-464.309 706.532 -455.543 817.522 -413.239 917.006C-393.197 964.122 -365.965 1008.25 -332.212 1046.79C-295.389 1088.84 -250.831 1120.31 -204.358 1150.77C-155.194 1183 -105.337 1216.74 -73.5653 1267.53C-43.6097 1315.42 -36.4118 1372.56 -62.5704 1423.78C-113.393 1523.28 -230.343 1555.15 -316.479 1614.23C-337.289 1628.5 -356.638 1644.72 -373.246 1663.78C-373.766 1664.37 -372.899 1665.25 -372.371 1664.65C-300.598 1582.32 -185.645 1558.87 -107.475 1484.15C-73.392 1451.57 -46.1356 1409.35 -44.6333 1360.96C-43.0815 1310.9 -68.7117 1264.49 -101.977 1228.75C-141.731 1186.05 -193.636 1157.55 -241.206 1124.75C-287.324 1092.94 -327.681 1055.04 -360.245 1009.32C-423.813 920.076 -456.22 809.647 -452.051 700.242C-447.71 586.305 -405.595 473.664 -334.095 384.837C-260.332 293.195 -156.309 232.458 -44.4187 199.415C66.9348 166.529 184.603 159.1 300.042 166.406C433.27 174.842 564.459 200.827 696.573 218.591C823.024 235.595 950.969 244.386 1077.58 223.948C1190.54 205.714 1301.9 165.605 1392.92 94.9379C1413.76 78.7591 1433.32 61.0366 1451.59 42.0099C1452.15 41.4569 1451.28 40.5737 1450.72 41.1515Z" fill="#1E293B"/>
<path d="M1449.86 29.496C1367.62 114.105 1259.6 166.926 1145.81 194.545C1017.74 225.64 885.766 224.699 755.452 210.823C621.861 196.601 489.829 170.475 356.098 157.441C238.166 145.951 118.665 146.009 2.36723 170.97C-108.986 194.867 -216.535 242.24 -300.219 320.856C-379.446 395.287 -433.257 495.447 -454.611 601.823C-475.999 708.356 -462.899 819.561 -416.913 918.037C-395.014 964.931 -365.941 1008.55 -330.612 1046.39C-291.89 1087.89 -245.557 1118.67 -198.061 1149.12C-148.22 1181.07 -98.1481 1215.08 -65.5758 1265.78C-34.3324 1314.4 -25.756 1372.82 -51.6587 1425.73C-101.698 1527.95 -220.505 1561.64 -307.054 1623.4C-327.706 1638.14 -346.849 1654.84 -363.217 1674.27C-363.729 1674.87 -362.854 1675.75 -362.342 1675.14C-291.18 1590.67 -175.592 1565.08 -97.3887 1488.85C-62.6619 1455 -35.2486 1411.21 -34.481 1361.42C-33.6885 1310.18 -60.524 1262.97 -94.871 1226.67C-135.392 1183.85 -187.842 1155.14 -236.477 1122.82C-283.974 1091.24 -326.287 1054.1 -360.865 1008.58C-427.025 921.479 -463.774 812.61 -463.625 703.213C-463.477 589.152 -424.59 475.323 -355.722 384.482C-283.536 289.257 -179.331 225.293 -66.1701 190.146C45.8272 155.353 164.791 146.636 281.444 152.942C415.432 160.19 547.512 185.193 680.294 202.948C809.222 220.192 939.709 230.122 1069.01 210.774C1184.1 193.546 1298.14 154.379 1391.34 83.1917C1412.44 67.0789 1432.25 49.406 1450.75 30.3711C1451.29 29.8015 1450.42 28.9265 1449.86 29.496Z" fill="#1E293B"/>
<path d="M1449.01 17.8394C1364.78 103.422 1253.95 155.574 1137.88 182.137C1008.1 211.854 874.689 209.707 743.038 195.65C608.184 181.246 474.725 155.715 339.598 143.605C220.84 132.957 100.514 133.997 -16.2953 160.147C-129.019 185.39 -237.706 234.966 -320.854 316.604C-398.967 393.296 -450.855 495.702 -468.998 603.481C-487.24 711.871 -469.237 823.86 -418.843 921.462C-394.889 967.86 -363.91 1010.7 -326.954 1047.62C-285.954 1088.58 -237.36 1118.61 -188.625 1149.34C-137.463 1181.6 -86.6651 1217.02 -54.2001 1269.35C-23.7409 1318.45 -16.0808 1376.7 -41.6698 1429.59C-91.783 1533.18 -211.102 1568.46 -297.634 1632.61C-318.138 1647.8 -337.058 1664.95 -353.212 1684.76C-353.707 1685.37 -352.84 1686.25 -352.337 1685.63C-281.695 1598.98 -165.339 1571.32 -87.0944 1493.39C-52.5987 1459.03 -25.4744 1414.95 -24.3765 1365.03C-23.2374 1313.39 -49.6849 1265.65 -83.9081 1228.67C-124.264 1185.06 -176.821 1155.73 -226.422 1124.13C-275.322 1092.97 -319.971 1057.48 -357.1 1012.69C-427.354 927.95 -469.584 820.154 -474.454 710.096C-479.605 593.46 -443.112 475.668 -374.764 381.22C-304.122 283.602 -200.123 217.318 -86.4587 180.511C26.3062 143.993 146.657 134.162 264.581 139.643C399.262 145.9 532.168 169.904 665.61 187.536C796.486 204.829 928.93 215.667 1060.34 197.507C1177.6 181.304 1294.27 143.094 1389.71 71.4113C1411.07 55.3727 1431.14 37.7328 1449.88 18.6979C1450.44 18.1449 1449.57 17.2699 1449.01 17.8394Z" fill="#1E293B"/>
<path d="M1448.15 6.18503C1367.15 87.5251 1261.64 138.043 1150.94 164.862C1033.73 193.257 912.453 195.808 792.73 186.315C651.52 175.122 512.076 148.93 371.246 134.345C250.152 121.806 127.713 118.744 7.46108 140.61C-101.754 160.47 -208.873 200.959 -295.892 271.213C-385.157 343.275 -447.8 445.045 -473.926 556.629C-499.647 666.481 -487.62 781.969 -440.668 884.491C-417.242 935.644 -385.627 983.091 -347.227 1024.23C-306.293 1068.09 -257.847 1101.17 -206.942 1132.34C-152.85 1165.46 -97.1897 1199 -58.2201 1250.28C-22.2304 1297.65 -4.08698 1357.26 -24.1042 1415.17C-43.2877 1470.68 -89.3232 1513.36 -136.589 1545.77C-184.696 1578.76 -237.789 1603.93 -284.518 1639.05C-306.277 1655.4 -326.302 1673.86 -343.199 1695.26C-343.686 1695.88 -342.819 1696.76 -342.324 1696.13C-269.395 1603.8 -145.71 1574.99 -67.5807 1488.2C-32.5733 1449.31 -8.92406 1399.64 -15.2635 1346.32C-21.6938 1292.25 -55.199 1244.87 -94.573 1209.03C-140.98 1166.8 -197.721 1138.23 -249.799 1103.93C-300.193 1070.73 -344.685 1030.22 -381.087 981.985C-450.896 889.509 -489.618 773.905 -486.043 657.846C-482.362 538.387 -435.823 420.587 -356.72 330.976C-279.854 243.907 -174.468 188.09 -63.4039 157.862C51.1027 126.693 170.975 121.038 288.94 128.583C430.967 137.671 571.121 163.698 712.389 179.712C835.117 193.62 959.133 199.39 1081.6 179.934C1191.24 162.517 1299.7 125.389 1389.44 58.6756C1410.56 42.9755 1430.45 25.6988 1449.02 7.0518C1449.58 6.49049 1448.71 5.61547 1448.15 6.18503Z" fill="#1E293B"/>
</g>
<defs>
<clipPath id="clip0_288_2349">
<rect width="1441" height="1257" fill="white" transform="translate(-1)"/>
</clipPath>
</defs>
</svg>
