<svg width="40" height="40" viewBox="0 0 40 40" fill="none" xmlns="http://www.w3.org/2000/svg">
<g clip-path="url(#clip0_138_303)">
<path fill-rule="evenodd" clip-rule="evenodd" d="M0 10.8213C0 4.84484 4.84484 0 10.8213 0H18.9474V10.8213H0ZM0 29.1787H29.1787C35.1552 29.1787 40 34.0235 40 39.9999H10.8213C4.84484 39.9999 0 35.1551 0 29.1787ZM13.1022 14.6859H0C0 20.6623 4.84484 25.5071 10.8213 25.5071H23.9234C23.9234 19.5307 19.0786 14.6859 13.1022 14.6859ZM25.2629 20.0965C25.2629 17.1369 27.6621 14.6859 30.6217 14.6859C33.5813 14.6859 35.9806 17.1369 35.9806 20.0965C35.9806 23.0561 33.5813 25.5071 30.6217 25.5071C27.6621 25.5071 25.2629 23.0561 25.2629 20.0965ZM32.6393 0C26.6629 0 21.818 4.84484 21.818 10.8213H28.7958C34.7722 10.8213 39.6171 5.97642 39.6171 0H32.6393Z" fill="url(#paint0_linear_138_303)"/>
</g>
<defs>
<linearGradient id="paint0_linear_138_303" x1="-18.6603" y1="-10.4348" x2="47.2422" y2="46.6184" gradientUnits="userSpaceOnUse">
<stop offset="0.351736" stop-color="#94A3B8"/>
<stop offset="0.855019" stop-color="#CBD5E1"/>
</linearGradient>
<clipPath id="clip0_138_303">
<rect width="40" height="40" fill="white"/>
</clipPath>
</defs>
</svg>
